<?xml version="1.0" encoding="utf-8"?>
<!-- Generator: Adobe Illustrator 24.3.0, SVG Export Plug-In . SVG Version: 6.00 Build 0)  -->
<svg version="1.1" id="Layer_1" xmlns="http://www.w3.org/2000/svg" xmlns:xlink="http://www.w3.org/1999/xlink" x="0px" y="0px"
	 viewBox="0 0 200 200" style="enable-background:new 0 0 200 200;" xml:space="preserve">
<style type="text/css">
	.st0{fill:#A0A0A0;}
	.st1{fill:#FFFFFF;}
	.st2{fill:#2F1DAC;}
	.st3{fill:#6734FF;}
	.st4{fill:#262261;}
	.st5{fill:#272560;}
	.st6{fill:#C7F2FF;}
	.st7{fill:#4B24C3;}
	.st8{fill:#6D66D3;}
	.st9{fill:#8787F9;}
	.st10{fill:#58BFC4;}
	.st11{fill:#2286AD;}
	.st12{fill:#009D8D;}
	.st13{fill:#8F60CC;}
	.st14{fill:#BBFFF7;}
</style>
<g>
	<path class="st10" d="M30,118.2v21.4c0,8.4,6.8,15.3,15.3,15.3h12.2v-6.1H45.3c-5.1,0-9.2-4.1-9.2-9.2v-21.4H30z"/>
	<path class="st10" d="M191,161.7l-27.5-24.5c-1.3-1.1-3.2-1-4.3,0.3c-0.5,0.6-0.8,1.3-0.8,2v9.2h-15.3v6.1h18.3
		c1.7,0,3.1-1.4,3.1-3.1v-5.4l19.9,17.6l-19.9,17.6v-5.4c0-1.7-1.4-3.1-3.1-3.1H45.3c-16.9,0-30.6-13.7-30.6-30.6c0,0,0,0,0,0
		l0-27.5c0-8.4,6.8-15.3,15.3-15.3h3.1v-6.1H30c-11.8,0-21.4,9.6-21.4,21.4l0,27.5c0,20.3,16.4,36.7,36.7,36.7c0,0,0,0,0,0h113.1
		v9.2c0,1.7,1.4,3.1,3.1,3.1c0.7,0,1.5-0.3,2-0.8l27.5-24.5c1.3-1.1,1.4-3.1,0.3-4.3C191.1,161.9,191.1,161.8,191,161.7z"/>
	<path class="st10" d="M170.6,81.5V60.1c0-8.4-6.8-15.3-15.3-15.3h-12.2v6.1h12.2c5.1,0,9.2,4.1,9.2,9.2v21.4H170.6z"/>
	<path class="st10" d="M155.3,20.4H42.2v-9.2c0-1.7-1.4-3.1-3.1-3.1c-0.7,0-1.5,0.3-2,0.8L9.6,33.4c-1.3,1.1-1.4,3.1-0.3,4.3
		c0.1,0.1,0.2,0.2,0.3,0.3l27.5,24.5c1.3,1.1,3.2,1,4.3-0.3c0.5-0.6,0.8-1.3,0.8-2v-9.2h15.3v-6.1H39.2c-1.7,0-3.1,1.4-3.1,3.1v5.4
		L16.3,35.6L36.1,18v5.4c0,1.7,1.4,3.1,3.1,3.1h116.1c16.9,0,30.6,13.7,30.6,30.6c0,0,0,0,0,0l0,27.5c0,8.4-6.8,15.3-15.3,15.3h-3.1
		v6.1h3.1c11.8,0,21.4-9.6,21.4-21.4l0-27.5C192,36.8,175.6,20.4,155.3,20.4C155.3,20.4,155.3,20.4,155.3,20.4z"/>
	<path class="st10" d="M51.5,87.6h-9.2c-1.7,0-3.1,1.4-3.1,3.1V109c0,1.7,1.4,3.1,3.1,3.1h9.2c0.5,0,0.9,0.4,0.9,0.9
		c0,0.3-0.2,0.6-0.4,0.7l-8,4.6c-1.5,0.8-2,2.7-1.1,4.2c0,0,0,0,0,0l9.2,15.9c0.8,1.5,2.7,2,4.2,1.1l8-4.6c0.4-0.2,0.9-0.1,1.2,0.3
		c0.2,0.3,0.2,0.6,0,0.9l-4.6,8c-0.8,1.5-0.3,3.3,1.1,4.2l15.9,9.2c1.5,0.8,3.3,0.3,4.2-1.1c0,0,0,0,0,0l4.6-8
		c0.2-0.4,0.8-0.6,1.2-0.3c0.3,0.2,0.4,0.4,0.4,0.7v9.2c0,1.7,1.4,3.1,3.1,3.1h18.3c1.7,0,3.1-1.4,3.1-3.1v-9.2
		c0-0.5,0.4-0.9,0.9-0.9c0.3,0,0.6,0.2,0.7,0.4l4.6,8c0.8,1.5,2.7,2,4.2,1.1c0,0,0,0,0,0l15.9-9.2c1.5-0.8,2-2.7,1.1-4.2l-4.6-8
		c-0.2-0.4-0.1-0.9,0.3-1.2c0.3-0.2,0.6-0.2,0.9,0l8,4.6c1.5,0.8,3.3,0.3,4.2-1.1l9.2-15.9c0.8-1.5,0.3-3.3-1.1-4.2c0,0,0,0,0,0
		l-8-4.6c-0.3-0.2-0.5-0.6-0.4-1l0.2-0.6h9.9c1.7,0,3.1-1.4,3.1-3.1V90.7c0-1.7-1.4-3.1-3.1-3.1h-9.2c-0.5,0-0.9-0.4-0.9-0.9
		c0-0.3,0.2-0.6,0.4-0.7l8-4.6c1.5-0.8,2-2.7,1.1-4.2c0,0,0,0,0,0l-9.2-15.9c-0.8-1.5-2.7-2-4.2-1.1l-8,4.6
		c-0.4,0.2-0.9,0.1-1.2-0.3c-0.2-0.3-0.2-0.6,0-0.9l4.6-8c0.8-1.5,0.3-3.3-1.1-4.2l-15.9-9.2c-1.5-0.8-3.3-0.3-4.2,1.1c0,0,0,0,0,0
		l-4.6,8l0,0c-0.2,0.4-0.8,0.6-1.2,0.3c-0.3-0.2-0.4-0.4-0.4-0.7v-9.2c0-1.7-1.4-3.1-3.1-3.1H91.1c-1.7,0-3.1,1.4-3.1,3.1V51
		c0,0.5-0.4,0.9-0.9,0.9c-0.3,0-0.6-0.2-0.7-0.4l-4.6-8c-0.8-1.5-2.7-2-4.2-1.1c0,0,0,0,0,0l-15.9,9.2c-1.5,0.8-2,2.7-1.1,4.2l4.6,8
		c0.2,0.4,0.1,0.9-0.3,1.2c-0.3,0.2-0.6,0.2-0.9,0l-8-4.6c-1.5-0.8-3.3-0.3-4.2,1.1l-9.2,15.9c-0.8,1.5-0.3,3.3,1.1,4.2c0,0,0,0,0,0
		l8,4.6c0.4,0.2,0.6,0.8,0.3,1.2C52.1,87.4,51.8,87.6,51.5,87.6z M54.9,80.7l-5.3-3.1L55.7,67l5.3,3.1c3.3,1.9,7.6,0.8,9.5-2.6
		c1.2-2.2,1.2-4.8,0-7l-3.1-5.3l10.6-6.1l3.1,5.3c1.9,3.3,6.2,4.5,9.5,2.6c2.2-1.2,3.5-3.5,3.5-6v-6.2h12.2V51c0,3.9,3.1,7,7,7
		c2.5,0,4.8-1.3,6-3.5l3.1-5.3l10.6,6.1l-3.1,5.3c-1.9,3.3-0.8,7.6,2.6,9.5c2.2,1.2,4.8,1.2,7,0l5.3-3.1l6.1,10.6l-5.3,3.1
		c-3.3,1.9-4.5,6.2-2.6,9.5c1.2,2.2,3.5,3.5,6,3.5h6.2v12.2h-9.2c-1.4,0-2.6,0.9-3,2.3l-0.8,2.9c-0.8,3.1,0.5,6.3,3.3,7.8l5.3,3.1
		l-6.1,10.6l-5.3-3.1c-3.3-1.9-7.6-0.8-9.5,2.6c-1.2,2.2-1.2,4.8,0,7l3.1,5.3l-10.6,6.1l-3.1-5.3c-1.9-3.3-6.2-4.5-9.5-2.6
		c-2.2,1.2-3.5,3.5-3.5,6v6.2H94.2v-6.2c0-3.9-3.1-7-7-7c-2.5,0-4.8,1.3-6,3.5l-3.1,5.3l-10.6-6.1l3.1-5.3c1.9-3.3,0.8-7.6-2.6-9.5
		c-2.2-1.2-4.8-1.2-7,0l-5.3,3.1L49.6,122l5.3-3.1c3.3-1.9,4.5-6.2,2.6-9.5c-1.2-2.2-3.5-3.5-6-3.5h-6.2V93.7h6.2c3.9,0,7-3.1,7-7
		C58.4,84.2,57.1,81.9,54.9,80.7z"/>
	<path class="st10" d="M100.3,124.3c13.5,0,24.5-10.9,24.5-24.5s-10.9-24.5-24.5-24.5S75.9,86.3,75.9,99.8
		C75.9,113.3,86.8,124.3,100.3,124.3z M100.3,81.5c10.1,0,18.3,8.2,18.3,18.3s-8.2,18.3-18.3,18.3S82,109.9,82,99.8
		C82,89.7,90.2,81.5,100.3,81.5z"/>
</g>
</svg>
