<?xml version="1.0" encoding="utf-8"?>
<!-- Generator: Adobe Illustrator 24.3.0, SVG Export Plug-In . SVG Version: 6.00 Build 0)  -->
<svg version="1.1" id="Layer_1" xmlns="http://www.w3.org/2000/svg" xmlns:xlink="http://www.w3.org/1999/xlink" x="0px" y="0px"
	 viewBox="0 0 200 200" style="enable-background:new 0 0 200 200;" xml:space="preserve">
<style type="text/css">
	.st0{fill:#A0A0A0;}
	.st1{fill:#FFFFFF;}
	.st2{fill:#2F1DAC;}
	.st3{fill:#6734FF;}
	.st4{fill:#262261;}
	.st5{fill:#272560;}
	.st6{fill:#C7F2FF;}
	.st7{fill:#4B24C3;}
	.st8{fill:#6D66D3;}
	.st9{fill:#8787F9;}
	.st10{fill:#58BFC4;}
	.st11{fill:#2286AD;}
	.st12{fill:#009D8D;}
	.st13{fill:#8F60CC;}
	.st14{fill:#BBFFF7;}
</style>
<g>
	<path class="st10" d="M190,72v-8c0-0.8-0.4-1.7-1.3-2.3l-82.9-51.1c-4.3-2.7-9.7-2.7-14,0L9,61.7c-0.7,0.4-1.3,1.3-1.3,2.3v8
		c0,6.3,5.6,11.4,11.9,10.7c-0.8,1.4-1.2,3.1-1.2,4.9c0,5.8,4.9,10.5,10.7,10.2v33.5c0,1.5,1.2,2.7,2.7,2.7c1.5,0,2.7-1.2,2.7-2.7
		V97.7h16.1v62H34.5v-16.1c0-1.5-1.2-2.7-2.7-2.7c-1.5,0-2.7,1.2-2.7,2.7v16.1c-5.8-0.2-10.7,4.3-10.7,10.2c0,1.8,0.4,3.4,1.2,4.9
		H14c-3.4,0-6.2,2.8-6.2,6.2v3.6c0,3.4,2.8,6.2,6.2,6.2h169.8c3.4,0,6.2-2.8,6.2-6.2V181c0-3.4-2.8-6.2-6.2-6.2h-5.7
		c0.8-1.4,1.2-3.1,1.2-4.9c0-5.8-4.9-10.4-10.7-10.2v-62c5.7,0.2,10.7-4.3,10.7-10.2c0-1.8-0.4-3.4-1.2-4.9
		C184.3,83,190,78.5,190,72L190,72z M28.6,92.4c-2.7,0-4.8-2.2-4.8-4.9s2.2-4.9,4.8-4.9h27.8c2.7,0,4.8,2.2,4.8,4.9
		s-2.2,4.9-4.8,4.9H28.6z M65.3,82.7H76c-0.8,1.4-1.2,3.1-1.2,4.9c0,5.8,4.9,10.5,10.7,10.2v62c-5.8-0.2-10.7,4.3-10.7,10.2
		c0,1.8,0.4,3.4,1.2,4.9H65.3c0.8-1.4,1.2-3.1,1.2-4.9c0-5.8-4.9-10.4-10.7-10.2v-62c5.7,0.2,10.7-4.3,10.7-10.2
		C66.6,85.8,66.1,84.1,65.3,82.7z M121.7,82.7h10.7c-0.8,1.4-1.2,3.1-1.2,4.9c0,5.8,4.9,10.5,10.7,10.2v62
		c-5.8-0.2-10.7,4.3-10.7,10.2c0,1.8,0.4,3.4,1.2,4.9h-10.7c0.8-1.4,1.2-3.1,1.2-4.9c0-5.8-4.9-10.4-10.7-10.2v-62
		c5.7,0.2,10.7-4.3,10.7-10.2C123,85.8,122.5,84.1,121.7,82.7z M112.8,165.1c2.7,0,4.8,2.2,4.8,4.9s-2.2,4.9-4.8,4.9H85
		c-2.7,0-4.8-2.2-4.8-4.9s2.2-4.9,4.8-4.9H112.8z M90.8,159.7v-62h16.1v62L90.8,159.7L90.8,159.7z M112.8,92.4H85
		c-2.7,0-4.8-2.2-4.8-4.9s2.2-4.9,4.8-4.9h27.8c2.7,0,4.8,2.2,4.8,4.9S115.4,92.4,112.8,92.4z M28.6,165.1h27.8
		c2.7,0,4.8,2.2,4.8,4.9s-2.2,4.9-4.8,4.9H28.6c-2.7,0-4.8-2.2-4.8-4.9S26,165.1,28.6,165.1z M183.8,180.1c0.5,0,0.9,0.4,0.9,0.9
		v3.6c0,0.5-0.4,0.9-0.9,0.9H14c-0.5,0-0.9-0.4-0.9-0.9V181c0-0.5,0.4-0.9,0.9-0.9H183.8z M169.1,165.1c2.7,0,4.8,2.2,4.8,4.9
		s-2.2,4.9-4.8,4.9h-27.8c-2.7,0-4.8-2.2-4.8-4.9s2.2-4.9,4.8-4.9H169.1z M147.2,159.7v-62h16.1v62L147.2,159.7L147.2,159.7z
		 M169.1,92.4h-27.8c-2.7,0-4.8-2.2-4.8-4.9s2.2-4.9,4.8-4.9h27.8c2.7,0,4.8,2.2,4.8,4.9C174,90.2,171.8,92.4,169.1,92.4L169.1,92.4
		z M18.4,77.3c-2.9,0-5.3-2.4-5.3-5.4v-5.4h123.3c1.5,0,2.7-1.2,2.7-2.7s-1.2-2.7-2.7-2.7H19.9l74.8-46.1c2.6-1.6,5.8-1.6,8.4,0
		l74.8,46.1h-29c-1.5,0-2.7,1.2-2.7,2.7s1.2,2.7,2.7,2.7h35.8V72c0,3-2.4,5.4-5.3,5.4L18.4,77.3L18.4,77.3z M96.4,30.8h8.7
		c1.5,0,2.7-1.2,2.7-2.7s-1.2-2.7-2.7-2.7h-3.5v-2c0-1.5-1.2-2.7-2.7-2.7s-2.7,1.2-2.7,2.7v2c-3.4,0.1-6.2,3.1-6.2,6.8v2.8
		c0,1.8,0.6,3.5,1.8,4.7c1.2,1.4,2.9,2.1,4.6,2.1h5c0.5,0,1,0.6,1,1.5v2.8c0,0.9-0.6,1.5-1,1.5h-8.7c-1.5,0-2.7,1.2-2.7,2.7
		c0,1.5,1.2,2.7,2.7,2.7h3.5v2c0,1.5,1.2,2.7,2.7,2.7s2.7-1.2,2.7-2.7v-2c3.4-0.1,6.2-3.1,6.2-6.8v-2.8c0-3.8-2.9-6.9-6.4-6.9h-5
		c-0.7,0-1-0.9-1-1.5v-2.8C95.4,31.5,95.9,30.8,96.4,30.8L96.4,30.8z"/>
</g>
</svg>
