<?xml version="1.0" encoding="utf-8"?>
<!-- Generator: Adobe Illustrator 24.3.0, SVG Export Plug-In . SVG Version: 6.00 Build 0)  -->
<svg version="1.1" id="Layer_1" xmlns="http://www.w3.org/2000/svg" xmlns:xlink="http://www.w3.org/1999/xlink" x="0px" y="0px"
	 viewBox="0 0 200 200" style="enable-background:new 0 0 200 200;" xml:space="preserve">
<style type="text/css">
	.st0{fill:#A0A0A0;}
	.st1{fill:#FFFFFF;}
	.st2{fill:#2F1DAC;}
	.st3{fill:#6734FF;}
	.st4{fill:#262261;}
	.st5{fill:#272560;}
	.st6{fill:#C7F2FF;}
	.st7{fill:#4B24C3;}
	.st8{fill:#6D66D3;}
	.st9{fill:#8787F9;}
	.st10{fill:#58BFC4;}
	.st11{fill:#2286AD;}
	.st12{fill:#009D8D;}
	.st13{fill:#8F60CC;}
	.st14{fill:#BBFFF7;}
</style>
<g>
	<g>
		<g>
			<path class="st10" d="M101.8,116.1h60.3c2.1,0,3.8-1.7,3.8-3.8s-1.7-3.8-3.8-3.8h-60.3c-2.1,0-3.8,1.7-3.8,3.8
				S99.7,116.1,101.8,116.1z"/>
			<path class="st10" d="M188.5,82.2V67.1c0-3.6-1.1-7-2.9-9.9c0-0.1-0.1-0.2-0.1-0.3l-23.3-37.5c-3.5-5.6-9.4-8.9-16-8.9H49.8
				c-6.6,0-12.5,3.3-16,8.9L10.5,56.9c0,0.1,0,0.2-0.1,0.2c-1.8,2.9-2.9,6.3-2.9,9.9v15.1c0,6.2,3,11.6,7.7,15.1
				c-4.6,3.4-7.7,8.9-7.7,15.1v15.1c0,6.2,3,11.6,7.7,15.1c-4.6,3.4-7.7,8.9-7.7,15.1v15.1c0,10.4,8.5,18.9,18.9,18.9h49.4
				c2.1,0,3.8-1.7,3.8-3.8s-1.7-3.8-3.8-3.8H26.4c-6.2,0-11.3-5.1-11.3-11.3v-15.1c0-6.2,5.1-11.3,11.3-11.3h63.1
				c2.1,0,3.8-1.7,3.8-3.8s-1.7-3.8-3.8-3.8H26.4c-6.2,0-11.3-5.1-11.3-11.3v-15.1c0-6.2,5.1-11.3,11.3-11.3h143.3
				c6.2,0,11.3,5.1,11.3,11.3v15.1c0,1.7-0.4,3.3-1.2,4.9c-0.9,1.9-0.1,4.1,1.7,5c1.9,0.9,4.1,0.2,5-1.7c1.3-2.7,2-5.4,2-8.2v-15.1
				c0-6.2-3-11.6-7.7-15.1C185.5,93.8,188.5,88.3,188.5,82.2z M40.2,23.4c2.1-3.3,5.7-5.3,9.6-5.3h96.3c3.9,0,7.5,2,9.6,5.3l15.6,25
				c-0.6-0.1-1.1-0.2-1.7-0.2H26.4c-0.6,0-1.1,0.1-1.7,0.2L40.2,23.4z M181,82.2c0,6.2-5.1,11.3-11.3,11.3H26.4
				c-6.2,0-11.3-5.1-11.3-11.3V67.1c0-6.2,5.1-11.3,11.3-11.3h143.3c6.2,0,11.3,5.1,11.3,11.3L181,82.2L181,82.2z"/>
			<path class="st10" d="M22.6,165.1c0,6.2,5.1,11.3,11.3,11.3s11.3-5.1,11.3-11.3s-5.1-11.3-11.3-11.3S22.6,158.9,22.6,165.1z
				 M37.7,165.1c0,2.1-1.7,3.8-3.8,3.8s-3.8-1.7-3.8-3.8s1.7-3.8,3.8-3.8C36,161.3,37.7,163,37.7,165.1z"/>
			<path class="st10" d="M162.1,138.7c-0.7,0-1.4,0-2,0.1c-6.3-9.4-16.8-15.2-28.1-15.2c-17.6,0-32,13.4-33.8,30.5
				c-8.7,1.7-15.3,9.3-15.3,18.5c0,10.4,8.5,18.9,18.9,18.9h60.3c14.6,0,26.4-11.8,26.4-26.4C188.5,150.6,176.7,138.7,162.1,138.7z
				 M162.1,184h-60.3c-6.2,0-11.3-5.1-11.3-11.3s5.1-11.3,11.3-11.3c2.1,0,3.8-1.7,3.8-3.8c0-14.6,11.8-26.4,26.4-26.4
				c9.4,0,18.2,5.2,22.9,13.6c0.8,1.4,2.3,2.1,4,1.9c1.1-0.2,2.2-0.3,3.3-0.3c10.4,0,18.9,8.5,18.9,18.9S172.5,184,162.1,184z"/>
			<path class="st10" d="M162.1,63.3h-60.3c-2.1,0-3.8,1.7-3.8,3.8c0,2.1,1.7,3.8,3.8,3.8h60.3c2.1,0,3.8-1.7,3.8-3.8
				C165.9,65,164.2,63.3,162.1,63.3z"/>
			<path class="st10" d="M162.1,78.4h-60.3c-2.1,0-3.8,1.7-3.8,3.8c0,2.1,1.7,3.8,3.8,3.8h60.3c2.1,0,3.8-1.7,3.8-3.8
				C165.9,80.1,164.2,78.4,162.1,78.4z"/>
			<path class="st10" d="M33.9,63.3c-6.2,0-11.3,5.1-11.3,11.3s5.1,11.3,11.3,11.3s11.3-5.1,11.3-11.3
				C45.2,68.4,40.2,63.3,33.9,63.3z M33.9,78.4c-2.1,0-3.8-1.7-3.8-3.8s1.7-3.8,3.8-3.8c2.1,0,3.8,1.7,3.8,3.8
				C37.7,76.7,36,78.4,33.9,78.4z"/>
			<path class="st10" d="M22.6,119.9c0,6.2,5.1,11.3,11.3,11.3s11.3-5.1,11.3-11.3c0-6.2-5.1-11.3-11.3-11.3S22.6,113.6,22.6,119.9z
				 M37.7,119.9c0,2.1-1.7,3.8-3.8,3.8s-3.8-1.7-3.8-3.8c0-2.1,1.7-3.8,3.8-3.8C36,116.1,37.7,117.8,37.7,119.9z"/>
		</g>
	</g>
</g>
</svg>
