<?xml version="1.0" encoding="utf-8"?>
<!-- Generator: Adobe Illustrator 24.3.0, SVG Export Plug-In . SVG Version: 6.00 Build 0)  -->
<svg version="1.1" id="Layer_1" xmlns="http://www.w3.org/2000/svg" xmlns:xlink="http://www.w3.org/1999/xlink" x="0px" y="0px"
	 viewBox="0 0 200 200" style="enable-background:new 0 0 200 200;" xml:space="preserve">
<style type="text/css">
	.st0{fill:#A0A0A0;}
	.st1{fill:#FFFFFF;}
	.st2{fill:#2F1DAC;}
	.st3{fill:#6734FF;}
	.st4{fill:#262261;}
	.st5{fill:#272560;}
	.st6{fill:#C7F2FF;}
	.st7{fill:#4B24C3;}
	.st8{fill:#6D66D3;}
	.st9{fill:#8787F9;}
	.st10{fill:#58BFC4;}
	.st11{fill:#2286AD;}
	.st12{fill:#009D8D;}
	.st13{fill:#8F60CC;}
	.st14{fill:#BBFFF7;}
</style>
<g>
	<path class="st10" d="M115.6,194.1H84.4c-4.2,0-7.7-3.1-8.1-7.3l-1.4-13.2c-0.1-1-0.8-1.8-1.7-2.2c-7.9-3-15.2-7.2-21.7-12.5
		c-0.7-0.6-1.8-0.8-2.7-0.4l-12.2,5.4c-3.8,1.7-8.3,0.3-10.4-3.4l-15.6-27c-2.1-3.6-1.1-8.2,2.3-10.7l10.8-7.8
		c0.8-0.6,1.2-1.6,1.1-2.5c-0.7-4.1-1-8.3-1-12.5s0.3-8.4,1-12.5c0.2-1-0.2-1.9-1.1-2.5L13,77.1c-3.4-2.5-4.4-7.1-2.3-10.7l15.6-27
		c2.1-3.6,6.6-5.1,10.4-3.4l12.2,5.4c0.9,0.4,2,0.3,2.7-0.4c2.9-2.4,6-4.5,9.1-6.5c1.3-0.8,3-0.4,3.8,0.9c0.8,1.3,0.4,3-0.9,3.8
		c-2.9,1.8-5.8,3.8-8.5,6c-2.4,2-5.6,2.4-8.5,1.1l-12.2-5.4c-1.2-0.6-2.7-0.1-3.4,1.1l-15.6,27c-0.7,1.2-0.4,2.7,0.7,3.5L27,80.5
		c2.5,1.8,3.8,4.9,3.3,7.9c-0.6,3.8-1,7.7-1,11.6s0.3,7.8,1,11.6c0.5,3-0.7,6.1-3.3,7.9l-10.8,7.8c-1.1,0.8-1.4,2.3-0.7,3.5l15.6,27
		c0.7,1.2,2.1,1.6,3.4,1.1l12.2-5.4c2.8-1.3,6.1-0.8,8.5,1.1c6,5,12.8,8.9,20.1,11.6c2.8,1.1,4.9,3.7,5.2,6.8l1.4,13.2
		c0.1,1.3,1.3,2.4,2.6,2.4h31.2c1.4,0,2.5-1,2.6-2.4l1.4-13.2c0.3-3,2.4-5.7,5.2-6.8c7.3-2.7,14.1-6.7,20.1-11.6
		c2.4-2,5.6-2.4,8.5-1.1l12.2,5.4c1.2,0.6,2.7,0.1,3.4-1.1l15.6-27c0.7-1.2,0.4-2.7-0.7-3.5l-10.8-7.8c-2.5-1.8-3.8-4.9-3.3-7.9
		c0.6-3.8,1-7.7,1-11.6c0-3.9-0.3-7.8-1-11.6c-0.5-3,0.7-6.1,3.3-7.9l10.8-7.8c1.1-0.8,1.4-2.3,0.7-3.5l-15.6-27
		c-0.7-1.2-2.1-1.6-3.4-1.1l-12.2,5.4c-2.8,1.3-6.1,0.8-8.5-1.1c-6-5-12.8-8.9-20.1-11.6c-2.8-1.1-4.9-3.7-5.2-6.8l-1.4-13.2
		c-0.1-1.3-1.3-2.4-2.6-2.4H84.4c-1.4,0-2.5,1-2.6,2.4L80.4,27c-0.3,3-2.4,5.7-5.2,6.8c-0.8,0.3-1.5,0.6-2.2,0.9
		c-1.4,0.6-3-0.1-3.6-1.5c-0.6-1.4,0.1-3,1.5-3.6c0.7-0.3,1.5-0.6,2.4-1c0.9-0.3,1.6-1.2,1.7-2.2l1.4-13.2c0.4-4.2,3.9-7.3,8.1-7.3
		h31.2c4.2,0,7.7,3.1,8.1,7.3l1.4,13.2c0.1,1,0.8,1.8,1.7,2.2c7.9,3,15.2,7.2,21.7,12.5c0.7,0.6,1.8,0.8,2.7,0.4l12.2-5.4
		c3.8-1.7,8.3-0.3,10.4,3.4l15.6,27c2.1,3.6,1.1,8.2-2.3,10.7l-10.8,7.8c-0.8,0.6-1.2,1.6-1.1,2.5c0.7,4.1,1,8.3,1,12.5
		s-0.3,8.4-1,12.5c-0.2,1,0.2,1.9,1.1,2.5l10.8,7.8c3.4,2.5,4.4,7.1,2.3,10.7l-15.6,27c-2.1,3.6-6.6,5.1-10.4,3.4l-12.2-5.4
		c-0.9-0.4-2-0.3-2.7,0.4c-6.5,5.4-13.8,9.6-21.7,12.5c-0.9,0.3-1.6,1.2-1.7,2.2l-1.4,13.2C123.3,191,119.8,194.1,115.6,194.1
		L115.6,194.1z"/>
	<path class="st10" d="M128,128.1c-2.8,0-5.5-0.4-8.2-1.2c-1.5-0.4-2.3-2-1.8-3.4s2-2.3,3.4-1.8c2.1,0.6,4.3,1,6.6,1
		c6,0,11.7-2.3,16-6.6c8.8-8.8,8.8-23.1,0-31.9c-8.8-8.8-23.1-8.8-31.9,0L102,94.2c-1.1,1.1-2.8,1.1-3.9,0L87.9,84
		c-8.8-8.8-23.1-8.8-31.9,0c-4.3,4.3-6.6,9.9-6.6,16s2.3,11.7,6.6,16c4.3,4.3,9.9,6.6,16,6.6c6,0,11.7-2.3,16-6.6l10.1-10.1
		c1.1-1.1,2.8-1.1,3.9,0l10.1,10.1c0.3,0.3,0.7,0.7,1,1c1.1,1,1.3,2.7,0.3,3.9c-1,1.1-2.7,1.3-3.9,0.3c-0.4-0.4-0.9-0.8-1.3-1.2
		l-8.2-8.2l-8.2,8.2c-5.3,5.3-12.3,8.2-19.9,8.2c-7.5,0-14.6-2.9-19.9-8.2c-5.3-5.3-8.2-12.4-8.2-19.9c0-7.5,2.9-14.5,8.2-19.9
		c10.9-10.9,28.8-10.9,39.7,0l8.2,8.2l8.2-8.2c10.9-10.9,28.8-10.9,39.7,0c10.9,10.9,10.9,28.8,0,39.7
		C142.6,125.1,135.5,128.1,128,128.1L128,128.1z M72,117c-4.6,0-8.8-1.8-12.1-5c-3.2-3.2-5-7.5-5-12.1s1.8-8.8,5-12.1
		c3.2-3.2,7.5-5,12.1-5c4.6,0,8.8,1.8,12.1,5l10.1,10.1c1.1,1.1,1.1,2.8,0,3.9L84,112.1C80.8,115.3,76.6,117,72,117L72,117z
		 M72,88.5c-3.1,0-6,1.2-8.2,3.4c-2.2,2.2-3.4,5.1-3.4,8.2s1.2,6,3.4,8.2c2.2,2.2,5.1,3.4,8.2,3.4c3.1,0,6-1.2,8.2-3.4l8.2-8.2
		l-8.2-8.2C78,89.7,75.1,88.5,72,88.5L72,88.5z M128,117c-4.4,0-8.7-1.7-12.1-5l-10.1-10.1c-1.1-1.1-1.1-2.8,0-3.9L116,87.9
		c6.6-6.6,17.5-6.6,24.1,0c3.2,3.2,5,7.5,5,12.1c0,4.6-1.8,8.8-5,12.1C136.7,115.4,132.4,117,128,117L128,117z M111.7,100l8.2,8.2
		c4.5,4.5,11.8,4.5,16.3,0c2.2-2.2,3.4-5.1,3.4-8.2c0-3.1-1.2-6-3.4-8.2c-4.5-4.5-11.8-4.5-16.3,0L111.7,100z M138.1,110.1
		L138.1,110.1L138.1,110.1z"/>
	<path class="st10" d="M131.3,69.1c-0.7,0-1.3-0.2-1.9-0.7c-8-7.4-18.5-11.5-29.4-11.5s-21.4,4.1-29.4,11.5c-1.1,1-2.9,1-3.9-0.1
		c-1-1.1-1-2.9,0.1-3.9c9-8.4,20.8-13,33.1-13s24.1,4.6,33.1,13c1.1,1,1.2,2.8,0.1,3.9C132.7,68.8,132,69.1,131.3,69.1z"/>
	<path class="st10" d="M100,148.7c-12.3,0-24.1-4.6-33.1-13c-1.1-1-1.2-2.8-0.1-3.9c1-1.1,2.8-1.2,3.9-0.1
		c8,7.4,18.5,11.5,29.4,11.5s21.4-4.1,29.4-11.5c1.1-1,2.9-1,3.9,0.1s1,2.9-0.1,3.9C124.1,144.1,112.3,148.7,100,148.7z"/>
</g>
</svg>
