<?xml version="1.0" encoding="utf-8"?>
<!-- Generator: Adobe Illustrator 24.3.0, SVG Export Plug-In . SVG Version: 6.00 Build 0)  -->
<svg version="1.1" id="Layer_1" xmlns="http://www.w3.org/2000/svg" xmlns:xlink="http://www.w3.org/1999/xlink" x="0px" y="0px"
	 viewBox="0 0 200 200" style="enable-background:new 0 0 200 200;" xml:space="preserve">
<style type="text/css">
	.st0{fill:#A0A0A0;}
	.st1{fill:#FFFFFF;}
	.st2{fill:#2F1DAC;}
	.st3{fill:#6734FF;}
	.st4{fill:#262261;}
	.st5{fill:#272560;}
	.st6{fill:#C7F2FF;}
	.st7{fill:#4B24C3;}
	.st8{fill:#6D66D3;}
	.st9{fill:#8787F9;}
	.st10{fill:#58BFC4;}
	.st11{fill:#2286AD;}
	.st12{fill:#009D8D;}
	.st13{fill:#8F60CC;}
	.st14{fill:#BBFFF7;}
</style>
<g>
	<path class="st10" d="M191.2,26.4c0-5.4-4.4-9.8-9.8-9.8h-39c-1.5,0-2.7,1.2-2.7,2.7s1.2,2.7,2.7,2.7h39c2.5,0,4.4,2,4.4,4.4
		l0,99.5H14.3l0-99.5c0-2.5,2-4.4,4.4-4.4h111.6c1.5,0,2.7-1.2,2.7-2.7s-1.2-2.7-2.7-2.7H18.7c-5.4,0-9.8,4.4-9.8,9.8v118.8
		c0,5.4,4.4,9.8,9.8,9.8H76l-3,22.4h-5.8c-1.5,0-2.7,1.2-2.7,2.7s1.2,2.7,2.7,2.7h65.7c1.5,0,2.7-1.2,2.7-2.7s-1.2-2.7-2.7-2.7H127
		l-0.8-6c-0.2-1.5-1.5-2.5-3-2.3c-1.5,0.2-2.5,1.5-2.3,3l0.7,5.3H78.4l3-22.4h5.3c1.2,6.3,6.7,10.9,13.3,10.9
		c6.5,0,12-4.7,13.3-10.9h5.3l0.7,5.2c0.2,1.3,1.3,2.3,2.6,2.3c0.1,0,0.2,0,0.4,0c1.5-0.2,2.5-1.5,2.3-3l-0.6-4.5h57.3
		c5.4,0,9.8-4.4,9.8-9.8L191.2,26.4z M100,160.6c-3.6,0-6.7-2.3-7.8-5.6h15.6C106.7,158.2,103.6,160.6,100,160.6z M185.8,145.2
		c0,2.5-2,4.4-4.4,4.4H18.7c-2.5,0-4.4-2-4.4-4.4v-13.9h171.6V145.2z"/>
	<path class="st10" d="M105.9,90.4h47.6c1.3,0,2.4-0.9,2.6-2.1l8.7-43.6h3.3c1.5,0,2.7-1.2,2.7-2.7c0-1.5-1.2-2.7-2.7-2.7h-5.5
		c-1.3,0-2.4,0.9-2.6,2.1l-1.5,7.5l-55.6,4.1c-0.8,0.1-1.5,0.5-2,1.1s-0.6,1.5-0.4,2.3l6.7,23.9c0.3,1.2,1.4,2,2.6,2h42.1l-0.6,2.8
		h-45.4c-4,0-7.3,3.3-7.3,7.3c0,4,3.3,7.3,7.3,7.3h2.3c-0.4,1-0.7,2.2-0.7,3.4c0,4.8,3.9,8.7,8.7,8.7s8.7-3.9,8.7-8.7
		c0-1.2-0.2-2.3-0.7-3.4h14.4c-0.4,1-0.7,2.2-0.7,3.4c0,4.8,3.9,8.7,8.7,8.7c4.8,0,8.7-3.9,8.7-8.7c0-1.2-0.2-2.3-0.7-3.4h2.6
		c1.5,0,2.7-1.2,2.7-2.7c0-1.5-1.2-2.7-2.7-2.7h-51.4c-1.1,0-2-0.9-2-2S104.8,90.4,105.9,90.4L105.9,90.4z M111.8,77l-5.2-18.8
		l50.9-3.7L152.9,77H111.8z M116.2,106.5c-1.9,0-3.4-1.5-3.4-3.4s1.5-3.4,3.4-3.4s3.4,1.5,3.4,3.4S118.1,106.5,116.2,106.5z
		 M146.6,106.5c-1.9,0-3.4-1.5-3.4-3.4s1.5-3.4,3.4-3.4s3.4,1.5,3.4,3.4S148.5,106.5,146.6,106.5z"/>
	<path class="st10" d="M118.3,60.5c-1.5,0-2.7,1.2-2.7,2.7v7.5c0,1.5,1.2,2.7,2.7,2.7s2.7-1.2,2.7-2.7v-7.5
		C121,61.7,119.8,60.5,118.3,60.5z"/>
	<path class="st10" d="M127.4,60.5c-1.5,0-2.7,1.2-2.7,2.7v7.5c0,1.5,1.2,2.7,2.7,2.7c1.5,0,2.7-1.2,2.7-2.7v-7.5
		C130.1,61.7,128.9,60.5,127.4,60.5z"/>
	<path class="st10" d="M136.5,60.5c-1.5,0-2.7,1.2-2.7,2.7v7.5c0,1.5,1.2,2.7,2.7,2.7c1.5,0,2.7-1.2,2.7-2.7v-7.5
		C139.2,61.7,138,60.5,136.5,60.5z"/>
	<path class="st10" d="M145.6,60.5c-1.5,0-2.7,1.2-2.7,2.7v7.5c0,1.5,1.2,2.7,2.7,2.7s2.7-1.2,2.7-2.7v-7.5
		C148.2,61.7,147,60.5,145.6,60.5z"/>
	<path class="st10" d="M46.2,54.6c1.5,0,2.7-1.2,2.7-2.7v-6.8l1.5,1.4c0.5,0.5,1.2,0.7,1.8,0.7c0.7,0,1.4-0.3,1.9-0.8
		c1-1.1,1-2.8-0.1-3.8l-6-5.6c-1-1-2.6-1-3.7,0l-6,5.6c-1.1,1-1.1,2.7-0.1,3.8c1,1.1,2.7,1.1,3.8,0.1l1.5-1.4V52
		C43.5,53.4,44.7,54.6,46.2,54.6z"/>
	<path class="st10" d="M67.8,54.6c1.5,0,2.7-1.2,2.7-2.7v-6.8l1.5,1.4c0.5,0.5,1.2,0.7,1.8,0.7c0.7,0,1.4-0.3,1.9-0.8
		c1-1.1,1-2.8-0.1-3.8l-6-5.6c-1-1-2.6-1-3.7,0l-6,5.6c-1.1,1-1.1,2.7-0.1,3.8c1,1.1,2.7,1.1,3.8,0.1l1.5-1.4V52
		C65.1,53.4,66.3,54.6,67.8,54.6z"/>
	<path class="st10" d="M84.2,69.2c0-3.4-2.8-6.2-6.2-6.2H37.4c-3.4,0-6.2,2.8-6.2,6.2v10.8c0,3.4,2.8,6.2,6.2,6.2h17.4
		c1.5,0,2.7-1.2,2.7-2.7c0-1.5-1.2-2.7-2.7-2.7H37.4c-0.5,0-0.9-0.4-0.9-0.9V69.2c0-0.5,0.4-0.9,0.9-0.9H78c0.5,0,0.9,0.4,0.9,0.9
		v10.8c0,0.5-0.4,0.9-0.9,0.9h-11c-1.5,0-2.7,1.2-2.7,2.7c0,1.5,1.2,2.7,2.7,2.7h11c3.4,0,6.2-2.8,6.2-6.2V69.2z"/>
	<path class="st10" d="M33.8,100.8h18.3c1.5,0,2.7-1.2,2.7-2.7c0-1.5-1.2-2.7-2.7-2.7H33.8c-1.5,0-2.7,1.2-2.7,2.7
		C31.2,99.6,32.4,100.8,33.8,100.8z"/>
	<path class="st10" d="M33.8,110.2h47.7c1.5,0,2.7-1.2,2.7-2.7s-1.2-2.7-2.7-2.7H33.8c-1.5,0-2.7,1.2-2.7,2.7S32.4,110.2,33.8,110.2
		z"/>
</g>
</svg>
