<?xml version="1.0"?>
<svg xmlns="http://www.w3.org/2000/svg" xmlns:xlink="http://www.w3.org/1999/xlink" xmlns:svgjs="http://svgjs.com/svgjs" version="1.1" width="512" height="512" x="0" y="0" viewBox="0 0 512.045 512.045" style="enable-background:new 0 0 512 512" xml:space="preserve" class=""><g><g xmlns="http://www.w3.org/2000/svg"><path d="m270.989 257.235v-19.45h4.581c24.052 0 43.619-19.567 43.619-43.619s-19.567-43.619-43.619-43.619h-31.455c-6.896 0-12.505-5.609-12.505-12.505s5.61-12.506 12.505-12.506h53.106v-30h-26.232v-19.45h-30v19.577c-21.982 1.607-39.379 19.994-39.379 42.379 0 23.438 19.068 42.505 42.505 42.505h31.455c7.51 0 13.619 6.109 13.619 13.619s-6.109 13.619-13.619 13.619h-67.78v30h33.199v19.45z" fill="#2f1dac" data-original="#000000" style="" class=""/><path d="m422.683 166.661c0-91.897-74.764-166.661-166.661-166.661-91.896 0-166.66 74.764-166.66 166.661 0 75.973 51.1 140.232 120.733 160.222v58.188h-53.493l99.409 126.975 99.408-126.975h-53.492v-58.181c69.645-19.983 120.756-84.248 120.756-160.229zm-303.321 0c0-75.355 61.306-136.661 136.66-136.661 75.355 0 136.661 61.306 136.661 136.661 0 75.354-61.306 136.66-136.661 136.66-75.354 0-136.66-61.305-136.66-136.66zm174.47 248.409-37.821 48.309-37.821-48.309h21.905v-82.514c5.244.5 10.555.765 15.927.765 5.365 0 10.668-.265 15.904-.763v82.512z" fill="#2f1dac" data-original="#000000" style="" class=""/></g></g></svg>
