<?xml version="1.0" encoding="utf-8"?>
<!-- Generator: Adobe Illustrator 24.3.0, SVG Export Plug-In . SVG Version: 6.00 Build 0)  -->
<svg version="1.1" id="Layer_1" xmlns="http://www.w3.org/2000/svg" xmlns:xlink="http://www.w3.org/1999/xlink" x="0px" y="0px"
	 viewBox="0 0 200 200" style="enable-background:new 0 0 200 200;" xml:space="preserve">
<style type="text/css">
	.st0{fill:#A0A0A0;}
	.st1{fill:#FFFFFF;}
	.st2{fill:#2F1DAC;}
	.st3{fill:#6734FF;}
	.st4{fill:#262261;}
	.st5{fill:#272560;}
	.st6{fill:#C7F2FF;}
	.st7{fill:#4B24C3;}
	.st8{fill:#6D66D3;}
	.st9{fill:#8787F9;}
	.st10{fill:#58BFC4;}
	.st11{fill:#2286AD;}
	.st12{fill:#009D8D;}
	.st13{fill:#8F60CC;}
	.st14{fill:#BBFFF7;}
</style>
<g>
	<g>
		<g>
			<path class="st10" d="M182.3,99.7h-3V26.8h3c5,0,9.1-4.1,9.1-9.1s-4.1-9.1-9.1-9.1h-164c-5,0-9.1,4.1-9.1,9.1s4.1,9.1,9.1,9.1h3
				v72.9h-3c-5,0-9.1,4.1-9.1,9.1s4.1,9.1,9.1,9.1h164c5,0,9.1-4.1,9.1-9.1S187.3,99.7,182.3,99.7z M18.3,20.7c-1.7,0-3-1.4-3-3
				c0-1.7,1.4-3,3-3h164c1.7,0,3,1.4,3,3s-1.4,3-3,3H18.3z M173.2,26.8v72.9H27.4V26.8H173.2z M182.3,111.9h-164c-1.7,0-3-1.4-3-3
				s1.4-3,3-3h164c1.7,0,3,1.4,3,3C185.3,110.5,184,111.9,182.3,111.9z"/>
			<path class="st10" d="M60.8,78.2c1.7,0,3-1.4,3-3V60.3l9.1,3.9v18.1l0,0c0,0.4,0.1,0.8,0.2,1.1c0.2,0.3,0.4,0.7,0.6,1
				c0.3,0.3,0.6,0.5,1,0.7l15.1,6.4c6.6,2.8,14.1,2.8,20.8,0l15.1-6.4c0.4-0.2,0.7-0.4,1-0.7c0.2-0.3,0.4-0.6,0.6-1
				c0.1-0.4,0.2-0.7,0.2-1.1l0,0V64.2l12-5.1c1.9-0.9,3.2-2.8,3.2-4.9s-1.2-4.1-3.2-4.9l-37.5-15.9c-1.2-0.5-2.6-0.5-3.8,0
				L60.9,49.2c-2,0.9-3.2,2.8-3.2,4.9v21.1C57.8,76.9,59.1,78.2,60.8,78.2z M121.5,80.3l-13.2,5.6c-5.1,2.2-10.9,2.2-16,0L79,80.3
				V66.8L98.4,75c1.2,0.5,2.6,0.5,3.8,0l19.4-8.2L121.5,80.3L121.5,80.3z M100.3,39.1l35.5,15.1l-12.3,5.2l0,0l-23.1,9.8l-23.1-9.8
				l0,0l-12.3-5.2L100.3,39.1z"/>
			<path class="st10" d="M185.3,172.6h-6.1v-3.9c-0.1-7.7-4.5-14.7-11.4-18.1c4.8-4.1,6.6-10.8,4.4-16.8c-2.2-6-7.9-9.9-14.2-9.9
				c-6.4,0-12,4-14.2,9.9c-2.2,6-0.4,12.7,4.4,16.8c-6.9,3.4-11.3,10.4-11.4,18.1v3.9h-15.2v-3.9c-0.1-7.7-4.5-14.7-11.4-18.1
				c4.8-4.1,6.6-10.8,4.4-16.8c-2.2-6-7.9-9.9-14.2-9.9c-6.4,0-12,4-14.2,9.9s-0.4,12.7,4.4,16.8C83.5,154,79.1,161,79,168.7v3.9
				H63.8v-3.9c-0.1-7.7-4.5-14.7-11.4-18.1c4.8-4.1,6.6-10.8,4.4-16.8c-2.2-6-7.9-9.9-14.2-9.9s-12,4-14.2,9.9s-0.4,12.7,4.4,16.8
				c-6.9,3.4-11.3,10.4-11.4,18.1v3.9h-6.1c-3.4,0-6.1,2.7-6.1,6.1v6.1c0,3.4,2.7,6.1,6.1,6.1h170.1c3.4,0,6.1-2.7,6.1-6.1v-6.1
				C191.4,175.3,188.7,172.6,185.3,172.6z M158,130.1c5,0,9.1,4.1,9.1,9.1c0,5-4.1,9.1-9.1,9.1c-5,0-9.1-4.1-9.1-9.1
				C148.9,134.2,153,130.1,158,130.1z M142.8,168.7c0.5-8,7.1-14.3,15.2-14.3c8.1,0,14.7,6.3,15.2,14.3v3.9h-30.4L142.8,168.7
				L142.8,168.7z M100.3,130.1c5,0,9.1,4.1,9.1,9.1c0,5-4.1,9.1-9.1,9.1c-5,0-9.1-4.1-9.1-9.1C91.2,134.2,95.2,130.1,100.3,130.1z
				 M85.1,168.7c0.5-8,7.1-14.3,15.2-14.3s14.7,6.3,15.2,14.3v3.9H85.1L85.1,168.7L85.1,168.7z M42.6,130.1c5,0,9.1,4.1,9.1,9.1
				c0,5-4.1,9.1-9.1,9.1c-5,0-9.1-4.1-9.1-9.1C33.5,134.2,37.5,130.1,42.6,130.1z M27.4,168.7c0.3-8.1,7-14.5,15.2-14.3
				c8.1-0.2,14.9,6.2,15.2,14.3v3.9H27.4V168.7z M15.2,184.8v-6.1h170.1l0,6.1H15.2z"/>
		</g>
	</g>
</g>
</svg>
