<?xml version="1.0" encoding="utf-8"?>
<!-- Generator: Adobe Illustrator 24.3.0, SVG Export Plug-In . SVG Version: 6.00 Build 0)  -->
<svg version="1.1" id="Layer_1" xmlns="http://www.w3.org/2000/svg" xmlns:xlink="http://www.w3.org/1999/xlink" x="0px" y="0px"
	 viewBox="0 0 200 200" style="enable-background:new 0 0 200 200;" xml:space="preserve">
<style type="text/css">
	.st0{fill:#A0A0A0;}
	.st1{fill:#FFFFFF;}
	.st2{fill:#2F1DAC;}
	.st3{fill:#6734FF;}
	.st4{fill:#262261;}
	.st5{fill:#272560;}
	.st6{fill:#C7F2FF;}
	.st7{fill:#4B24C3;}
	.st8{fill:#6D66D3;}
	.st9{fill:#8787F9;}
	.st10{fill:#58BFC4;}
	.st11{fill:#2286AD;}
	.st12{fill:#009D8D;}
	.st13{fill:#8F60CC;}
	.st14{fill:#BBFFF7;}
</style>
<g>
	<path class="st10" d="M49.2,102.7h48V115h-60c-5.2,0-9.4,4.2-9.4,9.4v3.8c0,1.5,1.3,2.8,2.8,2.8c1.5,0,2.8-1.3,2.8-2.8v-3.8
		c0-2.1,1.7-3.8,3.8-3.8h60v7.6c0,1.5,1.3,2.8,2.8,2.8s2.8-1.3,2.8-2.8v-7.6h60c2.1,0,3.8,1.7,3.8,3.8v3.8c0,1.5,1.3,2.8,2.8,2.8
		c1.5,0,2.8-1.3,2.8-2.8v-3.8c0-5.2-4.2-9.4-9.4-9.4h-60v-12.2h14.4c1.5,0,2.8-1.3,2.8-2.8c0-1.5-1.2-2.8-2.8-2.8H49.2
		c-12.5,0-22.6-10.1-22.6-22.6c0-11.3,8.4-20.9,19.6-22.4c1.3-0.2,2.3-1.3,2.4-2.6c0.9-14.6,13-26,27.6-26c4.6,0,9.1,1.1,13.1,3.3
		c1.3,0.7,3,0.2,3.7-1.1c5.1-8.8,14.6-14.3,24.8-14.3c15.8,0,28.7,12.9,28.7,28.7c0,2.8-0.4,5.6-1.2,8.3c-0.3,0.9-0.1,1.9,0.5,2.6
		c0.6,0.7,1.5,1.1,2.5,1c0.9-0.1,1.7-0.1,2.5-0.1c12.5,0,22.6,10.1,22.6,22.6s-10.1,22.6-22.6,22.6h-22.4c-1.5,0-2.8,1.3-2.8,2.8
		c0,1.5,1.2,2.8,2.8,2.8h22.4c15.5,0,28.2-12.6,28.2-28.2c0-15.3-12.2-27.7-27.4-28.2c0.4-2,0.6-4.1,0.6-6.2
		c0-18.9-15.4-34.3-34.3-34.3c-11.3,0-21.9,5.6-28.2,14.8c-4.2-1.9-8.8-2.8-13.4-2.8c-16.8,0-30.9,12.6-33,29.1
		C30.4,49.7,21,61.2,21,74.5C21,90.1,33.6,102.7,49.2,102.7z"/>
	<path class="st10" d="M117.6,138.6h-24c-4.6,0-8.3,3.7-8.3,8.3v38.9c0,4.6,3.7,8.3,8.3,8.3h24c4.6,0,8.3-3.7,8.3-8.3v-38.9
		C125.9,142.3,122.1,138.6,117.6,138.6z M93.6,144.2h24c1.5,0,2.7,1.2,2.7,2.7v2.1c-0.5-0.1-0.9-0.1-1.4-0.1H92.3
		c-0.5,0-1,0.1-1.4,0.1v-2.1C90.9,145.4,92.1,144.2,93.6,144.2z M120.3,176.8c0,0.8-0.6,1.4-1.4,1.4H92.3c-0.8,0-1.4-0.6-1.4-1.4
		v-20.9c0-0.8,0.6-1.4,1.4-1.4h26.5c0.8,0,1.4,0.6,1.4,1.4V176.8z M117.6,188.5h-24c-1.5,0-2.7-1.2-2.7-2.7v-2.1
		c0.5,0.1,0.9,0.1,1.4,0.1h26.5c0.5,0,1-0.1,1.4-0.1v2.1C120.3,187.3,119.1,188.5,117.6,188.5z"/>
	<path class="st10" d="M185.2,138.2h-41.4c-4.8,0-8.8,3.9-8.8,8.8v27.8c0,4.8,3.9,8.8,8.8,8.8h13.3l-1,4.7h-1.8
		c-1.5,0-2.8,1.3-2.8,2.8s1.2,2.8,2.8,2.8h20.4c1.5,0,2.8-1.3,2.8-2.8s-1.3-2.8-2.8-2.8h-1.8l-1-4.7h13.3c4.8,0,8.8-3.9,8.8-8.8V147
		C194,142.2,190.1,138.2,185.2,138.2z M167.2,188.3h-5.4l1-4.7h3.5L167.2,188.3z M188.4,174.8c0,1.8-1.4,3.2-3.2,3.2h-41.4
		c-1.8,0-3.2-1.4-3.2-3.2V147c0-1.8,1.4-3.2,3.2-3.2h41.4c1.8,0,3.2,1.4,3.2,3.2V174.8z"/>
	<path class="st10" d="M71.1,178.2v-12.3c0-1.5-1.3-2.8-2.8-2.8c-1.5,0-2.8,1.3-2.8,2.8V178H17.7v-31.5c0-1.5,1.2-2.7,2.7-2.7h42.3
		c1.5,0,2.7,1.2,2.7,2.7v8.2c0,1.5,1.3,2.8,2.8,2.8c1.5,0,2.8-1.3,2.8-2.8v-8.2c0-4.6-3.7-8.3-8.3-8.3H20.5c-4.6,0-8.3,3.7-8.3,8.3
		v31.7c-3.5,0.8-6.1,4-6.1,7.7c0,4.4,3.6,8,8,8h55.3c4.4,0,8-3.6,8-8C77.2,182.2,74.6,179.1,71.1,178.2z M69.3,188.3H14
		c-1.3,0-2.4-1.1-2.4-2.4c0-1.3,1.1-2.4,2.4-2.4h55.3c1.3,0,2.4,1.1,2.4,2.4C71.6,187.3,70.6,188.3,69.3,188.3z"/>
</g>
</svg>
