<?xml version="1.0" encoding="utf-8"?>
<!-- Generator: Adobe Illustrator 24.3.0, SVG Export Plug-In . SVG Version: 6.00 Build 0)  -->
<svg version="1.1" id="Layer_1" xmlns="http://www.w3.org/2000/svg" xmlns:xlink="http://www.w3.org/1999/xlink" x="0px" y="0px"
	 viewBox="0 0 200 200" style="enable-background:new 0 0 200 200;" xml:space="preserve">
<style type="text/css">
	.st0{fill:#A0A0A0;}
	.st1{fill:#FFFFFF;}
	.st2{fill:#2F1DAC;}
	.st3{fill:#6734FF;}
	.st4{fill:#262261;}
	.st5{fill:#272560;}
	.st6{fill:#C7F2FF;}
	.st7{fill:#4B24C3;}
	.st8{fill:#6D66D3;}
	.st9{fill:#8787F9;}
	.st10{fill:#58BFC4;}
	.st11{fill:#2286AD;}
	.st12{fill:#009D8D;}
	.st13{fill:#8F60CC;}
	.st14{fill:#BBFFF7;}
</style>
<g>
	<g>
		<g>
			<path class="st10" d="M185.6,46.9h-76.2c-2.4-2.3-5.5-3.6-8.8-3.6c-3.3,0-6.4,1.3-8.8,3.6c-0.1,0-0.1,0-0.2,0h-76
				c-3.4,0-6.1,2.7-6.1,6.1V53c0,7.1,5.8,12.9,12.9,12.9h1c0,0.3-0.1,0.5-0.1,0.8v0.1c0,7.1,5.8,12.9,12.9,12.9h1c0,0.3,0,0.5,0,0.8
				v0.1c0,7.1,5.8,12.9,12.9,12.9h31.4c1.5,0,2.7-1.2,2.7-2.7c0-1.5-1.2-2.7-2.7-2.7H50c-4.2,0-7.6-3.4-7.6-7.6v-0.1
				c0-0.4,0.3-0.7,0.7-0.8h3.6c0.1,0,0.1,0,0.2,0h7.4c1.5,0,2.7-1.2,2.7-2.7s-1.2-2.7-2.7-2.7H43.2c-0.1,0-0.2,0-0.3,0h-6.7
				c-4.2,0-7.6-3.4-7.6-7.6v-0.1c0-0.4,0.4-0.8,0.8-0.8h48.4c1.5,0,2.7-1.2,2.7-2.7s-1.2-2.7-2.7-2.7H33c-0.1,0-0.1,0-0.2,0H22.4
				c-4.2,0-7.6-3.4-7.6-7.6V53c0-0.4,0.4-0.8,0.8-0.8h73C88.1,53.6,88,55,88,56.5l0.9,17.9H63.6c-1.5,0-2.7,1.2-2.7,2.7
				c0,1.5,1.2,2.7,2.7,2.7h25.6l2.1,43.3h-6.6c-7.2,0-13,5.9-13,13.1c0,3.7,1.6,7.2,4.3,9.7c1.1,1,2.8,0.9,3.8-0.2
				c1-1.1,0.9-2.8-0.2-3.8c-1.6-1.5-2.5-3.6-2.5-5.7c0-4.3,3.5-7.7,7.7-7.7h6.9l0.8,15.5h-0.7c-7.2,0-13,5.9-13,13.1
				c0,5.5,3.5,10.5,8.7,12.3c1.4,0.5,2.9-0.2,3.4-1.6c0.5-1.4-0.2-2.9-1.6-3.4c-3.1-1.1-5.1-4-5.1-7.3c0-4.3,3.5-7.7,7.7-7.7h1
				l1.7,35.6c0.2,3.4,2.9,6,6.3,6s6.1-2.6,6.3-6l1.7-35.6h7.9c7.2,0,13-5.9,13-13.1c0-0.8-0.1-1.6-0.2-2.3c-0.3-1.5-1.6-2.4-3.1-2.2
				c-1.5,0.3-2.4,1.6-2.2,3.1c0.1,0.5,0.1,0.9,0.1,1.4c0,4.3-3.5,7.7-7.7,7.7h-7.6l0.8-15.5H123c7.2,0,13-5.9,13-13.1
				s-5.8-13.1-13-13.1c-1.5,0-2.7,1.2-2.7,2.7s1.2,2.7,2.7,2.7c4.2,0,7.7,3.5,7.7,7.7s-3.5,7.7-7.7,7.7h-13.2l2.1-43.3h27.7
				c1.5,0,2.7-1.2,2.7-2.7s-1.2-2.7-2.7-2.7h-27.5l0.9-17.9c0.1-1.5-0.1-2.9-0.5-4.3h73c0.4,0,0.8,0.4,0.8,0.8V53
				c0,4.2-3.4,7.6-7.6,7.6H171c-0.1,0-0.1,0-0.2,0h-48.2c-1.5,0-2.7,1.2-2.7,2.7c0,1.5,1.2,2.7,2.7,2.7h49.1c0.4,0,0.8,0.4,0.8,0.8
				v0.1c0,4.2-3.4,7.6-7.6,7.6h-6.7c-0.1,0-0.2,0-0.3,0h-8c-1.5,0-2.7,1.2-2.7,2.7c0,1.5,1.2,2.7,2.7,2.7h0.2c0.1,0,0.1,0,0.2,0h7.7
				c0.4,0.1,0.7,0.4,0.7,0.8v0.1c0,4.2-3.4,7.6-7.6,7.6h-31.9c-1.5,0-2.7,1.2-2.7,2.7s1.2,2.7,2.7,2.7h31.9
				c7.1,0,12.9-5.8,12.9-12.9v-0.1c0-0.3,0-0.5,0-0.8h1c7.1,0,12.9-5.8,12.9-12.9v-0.1c0-0.3,0-0.5-0.1-0.8h1
				c7.1,0,12.9-5.8,12.9-12.9V53C191.7,49.6,188.9,46.9,185.6,46.9z M101.5,184.6c0,0.5-0.4,0.9-1,0.9c-0.5,0-0.9-0.4-1-0.9
				l-1.7-35.4h5.4L101.5,184.6z M103.5,143.9h-5.9l-0.8-15.5h7.4L103.5,143.9z M104.5,123.1h-7.9l-3.2-66.8c-0.1-2,0.6-3.9,2-5.4
				c1.4-1.4,3.2-2.2,5.2-2.2c2,0,3.8,0.8,5.2,2.2c1.4,1.5,2.1,3.4,2,5.4L104.5,123.1z"/>
			<path class="st10" d="M100.6,38.8c8.3,0,15.1-6.8,15.1-15.1s-6.8-15.1-15.1-15.1s-15.1,6.8-15.1,15.1S92.3,38.8,100.6,38.8z
				 M100.6,13.9c5.4,0,9.7,4.4,9.7,9.8s-4.4,9.8-9.7,9.8s-9.7-4.4-9.7-9.8S95.2,13.9,100.6,13.9z"/>
			<path class="st10" d="M118.7,151.3c-1.4,0.4-2.2,1.9-1.8,3.3c0.2,0.7,0.3,1.5,0.3,2.3c0,3.3-2.1,6.2-5.1,7.3
				c-1.4,0.5-2.1,2-1.6,3.4c0.4,1.1,1.4,1.8,2.5,1.8c0.3,0,0.6,0,0.9-0.2c5.2-1.8,8.7-6.8,8.7-12.3c0-1.3-0.2-2.6-0.6-3.9
				C121.6,151.7,120.1,150.9,118.7,151.3z"/>
			<path class="st10" d="M72.7,120.9c-1.5-1.5-2.3-3.4-2.3-5.5c0-4.3,3.5-7.7,7.7-7.7c1.5,0,2.7-1.2,2.7-2.7c0-1.5-1.2-2.7-2.7-2.7
				c-7.2,0-13,5.9-13,13.1c0,3.5,1.4,6.9,3.9,9.3c0.5,0.5,1.2,0.8,1.9,0.8c0.7,0,1.4-0.3,1.9-0.8C73.8,123.6,73.8,121.9,72.7,120.9z
				"/>
		</g>
	</g>
</g>
</svg>
