<?xml version="1.0" encoding="utf-8"?>
<!-- Generator: Adobe Illustrator 24.3.0, SVG Export Plug-In . SVG Version: 6.00 Build 0)  -->
<svg version="1.1" id="Layer_1" xmlns="http://www.w3.org/2000/svg" xmlns:xlink="http://www.w3.org/1999/xlink" x="0px" y="0px"
	 viewBox="0 0 200 200" style="enable-background:new 0 0 200 200;" xml:space="preserve">
<style type="text/css">
	.st0{fill:#A0A0A0;}
	.st1{fill:#FFFFFF;}
	.st2{fill:#2F1DAC;}
	.st3{fill:#6734FF;}
	.st4{fill:#262261;}
	.st5{fill:#272560;}
	.st6{fill:#C7F2FF;}
	.st7{fill:#4B24C3;}
	.st8{fill:#6D66D3;}
	.st9{fill:#8787F9;}
	.st10{fill:#58BFC4;}
	.st11{fill:#2286AD;}
	.st12{fill:#009D8D;}
	.st13{fill:#8F60CC;}
	.st14{fill:#BBFFF7;}
</style>
<g>
	<g>
		<g>
			<path class="st10" d="M175.7,114V82.6h-17.7c-0.7-1.9-1.5-3.9-2.4-5.8l12.5-12.5l-28.2-28.2l-12.5,12.5c-1.9-0.9-3.9-1.7-5.8-2.4
				V28.5H93.1V11.4H13.4v28.5h5.7v5.7h-5.7v28.5h5.7v5.7h-5.7v28.5h14.2v14.2h17.7c0.7,1.9,1.5,3.9,2.4,5.8l-12.5,12.5L63.4,169
				l12.5-12.5c1.9,0.9,3.9,1.7,5.8,2.4v17.7h28.5V188H190v-74H175.7z M93.1,34.2h22.8v16.1l2,0.6c2.9,0.9,5.9,2.2,8.8,3.7l1.9,1
				l11.4-11.4l20.1,20.1l-11.4,11.4l1,1.9c1.5,2.9,2.8,5.9,3.7,8.8l0.6,2H170v25.6h-7.5l-5.7,11.4h-19.1c0.9-1.4,1.8-2.9,2.5-4.5
				l-5.1-2.4c-1.2,2.5-2.7,4.8-4.4,6.9h-12.1c6.9-5.2,11.5-13.5,11.5-22.8c0-15.7-12.8-28.5-28.5-28.5c-5,0-9.9,1.3-14.2,3.8v-3.8
				h5.7v-7.5c2.8-0.7,5.6-1,8.5-1c20.4,0,37,16.6,37,37c0,3.6-0.5,7.2-1.5,10.6l5.5,1.6c1.2-3.9,1.8-8.1,1.8-12.2
				c0-23.6-19.2-42.7-42.7-42.7c-2.9,0-5.7,0.3-8.5,0.9V45.6h-5.7v-5.7h5.7V34.2z M101.7,125.3c-10.5,0-19.5-7.2-22-17.1h13.5V81.4
				c2.7-1.1,5.6-1.7,8.5-1.7c12.6,0,22.8,10.2,22.8,22.8S114.2,125.3,101.7,125.3z M19.1,34.2V17.1h68.3v17.1H19.1z M81.7,39.9v5.7
				h-57v-5.7H81.7z M19.1,68.4V51.3h68.3v17.1H19.1z M81.7,74.1v5.7h-57v-5.7H81.7z M27.6,102.6h-8.5V85.5h68.3v17.1H64.7H59H33.3
				H27.6z M110.2,170.9H87.4v-16.1l-2-0.6c-2.9-0.9-5.9-2.2-8.8-3.7l-1.9-1L63.4,161l-20.1-20.1l11.4-11.4l-1-1.9
				c-1.5-2.9-2.8-5.9-3.7-8.8l-0.6-2H33.3v-8.5h26.1c2.8,20.9,20.7,37,42.3,37c2.9,0,5.7-0.3,8.5-0.9V170.9z M110.2,138.6
				c-2.8,0.7-5.6,1-8.5,1c-18.5,0-33.8-13.6-36.5-31.3h8.6C76.4,121.4,88,131,101.7,131c3,0,5.8-0.5,8.5-1.3V138.6z M184.3,182.3
				h-68.3v-34.2h68.3V182.3z M184.3,142.4h-68.3V131h44.5l5.7-11.4h3.9h5.7h8.5V142.4z"/>
		</g>
	</g>
	<g>
		<g>
			<rect x="170" y="125.3" class="st10" width="8.5" height="5.7"/>
		</g>
	</g>
</g>
</svg>
