<?xml version="1.0" encoding="utf-8"?>
<!-- Generator: Adobe Illustrator 24.3.0, SVG Export Plug-In . SVG Version: 6.00 Build 0)  -->
<svg version="1.1" id="Layer_1" xmlns="http://www.w3.org/2000/svg" xmlns:xlink="http://www.w3.org/1999/xlink" x="0px" y="0px"
	 viewBox="0 0 200 200" style="enable-background:new 0 0 200 200;" xml:space="preserve">
<style type="text/css">
	.st0{fill:#A0A0A0;}
	.st1{fill:#FFFFFF;}
	.st2{fill:#2F1DAC;}
	.st3{fill:#6734FF;}
	.st4{fill:#262261;}
	.st5{fill:#272560;}
	.st6{fill:#C7F2FF;}
	.st7{fill:#4B24C3;}
	.st8{fill:#6D66D3;}
	.st9{fill:#8787F9;}
	.st10{fill:#58BFC4;}
	.st11{fill:#2286AD;}
	.st12{fill:#009D8D;}
	.st13{fill:#8F60CC;}
	.st14{fill:#BBFFF7;}
</style>
<g>
	<g>
		<path class="st10" d="M185.4,67.7V35.3c2-1.9,3.2-4.6,3.2-7.5c0-5.7-4.7-10.4-10.4-10.4c-2.9,0-5.6,1.2-7.5,3.2H91.2
			c-4,0-7.2,3.2-7.2,7.2s3.2,7.2,7.2,7.2h0.4v24h-2.8c-2.5,0-4.4,2-4.4,4.4V74c0,2.5,2,4.4,4.4,4.4h21.9c2.5,0,4.4-2,4.4-4.4V63.4
			c0-2.5-2-4.4-4.4-4.4h-2.8V35h30.7c1.5,0,2.7-1.2,2.7-2.7c0-1.5-1.2-2.7-2.7-2.7H91.2c-1,0-1.9-0.8-1.9-1.9c0-1,0.8-1.9,1.9-1.9
			H168c-0.1,0.6-0.2,1.2-0.2,1.9c0,0.6,0.1,1.3,0.2,1.9h-17c-1.5,0-2.7,1.2-2.7,2.7c0,1.5,1.2,2.7,2.7,2.7h19.7
			c0.1,0.1,0.2,0.2,0.3,0.3v32.3c-3.1,0.4-5.4,3-5.4,6.2V92h-31.7c-2.1,0-3.7,1.7-3.7,3.7v33h-8.6v-33c0-2.1-1.7-3.7-3.7-3.7h-36
			c-2.1,0-3.7,1.7-3.7,3.7v33h-8.6v-11.9c0-1.5-1.2-2.7-2.7-2.7s-2.7,1.2-2.7,2.7v11.9H31.2V97.4H64v7c0,1.5,1.2,2.7,2.7,2.7
			s2.7-1.2,2.7-2.7v-8.6c0-2.1-1.7-3.7-3.7-3.7h-36c-2.1,0-3.7,1.7-3.7,3.7v33c-9.7,0.8-17.3,9-17.3,18.8v2.4
			c0,8.6,5.8,15.9,13.6,18.2v9.4c0,2.5,2,4.4,4.4,4.4h106.9c1.5,0,2.7-1.2,2.7-2.7s-1.2-2.7-2.7-2.7h-106v-7.7h144.3v7.7H146
			c-1.5,0-2.7,1.2-2.7,2.7s1.2,2.7,2.7,2.7h26.8c2.5,0,4.4-2,4.4-4.4v-9.4c7.9-2.3,13.6-9.6,13.6-18.2V73.8
			C190.9,70.7,188.5,68,185.4,67.7L185.4,67.7z M109.8,73.2H89.7v-8.8h20.1V73.2z M102.5,59H97V35h5.6V59z M180.1,67.6h-3.7V38.1
			c0.6,0.1,1.2,0.2,1.9,0.2c0.6,0,1.3-0.1,1.9-0.2V67.6z M183.3,27.8c0,2.8-2.3,5.1-5.1,5.1s-5.1-2.3-5.1-5.1s2.3-5.1,5.1-5.1
			S183.3,25,183.3,27.8z M148.7,97.4h6.2v11.4h-6.2V97.4z M135.5,97.4h7.9v13c0,2.1,1.7,3.7,3.7,3.7h9.4c2.1,0,3.7-1.7,3.7-3.7v-13
			h7.9v31.4h-32.8L135.5,97.4L135.5,97.4z M96.6,97.4h6.2v11.4h-6.2V97.4z M83.3,97.4h7.9v13c0,2.1,1.7,3.7,3.7,3.7h9.4
			c2.1,0,3.7-1.7,3.7-3.7v-13h7.9v31.4H83.3L83.3,97.4L83.3,97.4z M185.5,150c0,7.5-6.1,13.6-13.6,13.6H27.5
			c-7.5,0-13.6-6.1-13.6-13.6v-2.4c0-7.5,6.1-13.6,13.6-13.6h144.4c7.5,0,13.6,6.1,13.6,13.6V150z M185.5,134.5
			c-3.1-3.2-7.3-5.3-11.9-5.7v-33c0-1.7-1.1-3.1-2.7-3.6V73.8c0-0.5,0.4-0.9,0.9-0.9h12.9c0.5,0,0.9,0.4,0.9,0.9V134.5z"/>
		<path class="st10" d="M29.9,138.4c-5.7,0-10.4,4.7-10.4,10.4s4.7,10.4,10.4,10.4s10.4-4.7,10.4-10.4S35.7,138.4,29.9,138.4z
			 M29.9,153.9c-2.8,0-5.1-2.3-5.1-5.1s2.3-5.1,5.1-5.1s5.1,2.3,5.1,5.1S32.7,153.9,29.9,153.9z"/>
		<path class="st10" d="M85.8,138.4c-5.7,0-10.4,4.7-10.4,10.4s4.7,10.4,10.4,10.4s10.4-4.7,10.4-10.4S91.5,138.4,85.8,138.4z
			 M85.8,153.9c-2.8,0-5.1-2.3-5.1-5.1s2.3-5.1,5.1-5.1s5.1,2.3,5.1,5.1S88.6,153.9,85.8,153.9z"/>
		<path class="st10" d="M113.7,138.4c-5.7,0-10.4,4.7-10.4,10.4s4.7,10.4,10.4,10.4s10.4-4.7,10.4-10.4S119.5,138.4,113.7,138.4z
			 M113.7,153.9c-2.8,0-5.1-2.3-5.1-5.1s2.3-5.1,5.1-5.1s5.1,2.3,5.1,5.1S116.5,153.9,113.7,153.9z"/>
		<path class="st10" d="M141.6,138.4c-5.7,0-10.4,4.7-10.4,10.4s4.7,10.4,10.4,10.4s10.4-4.7,10.4-10.4S147.4,138.4,141.6,138.4z
			 M141.6,153.9c-2.8,0-5.1-2.3-5.1-5.1s2.3-5.1,5.1-5.1s5.1,2.3,5.1,5.1S144.4,153.9,141.6,153.9z"/>
		<path class="st10" d="M57.9,138.4c-5.7,0-10.4,4.7-10.4,10.4s4.7,10.4,10.4,10.4s10.4-4.7,10.4-10.4S63.6,138.4,57.9,138.4z
			 M57.9,153.9c-2.8,0-5.1-2.3-5.1-5.1s2.3-5.1,5.1-5.1c2.8,0,5.1,2.3,5.1,5.1S60.7,153.9,57.9,153.9z"/>
		<path class="st10" d="M169.6,138.4c-5.7,0-10.4,4.7-10.4,10.4s4.7,10.4,10.4,10.4s10.4-4.7,10.4-10.4S175.3,138.4,169.6,138.4z
			 M169.6,153.9c-2.8,0-5.1-2.3-5.1-5.1s2.3-5.1,5.1-5.1s5.1,2.3,5.1,5.1S172.4,153.9,169.6,153.9z"/>
	</g>
</g>
</svg>
