<?xml version="1.0"?>
<svg xmlns="http://www.w3.org/2000/svg" xmlns:xlink="http://www.w3.org/1999/xlink" xmlns:svgjs="http://svgjs.com/svgjs" version="1.1" width="512" height="512" x="0" y="0" viewBox="0 0 384 384" style="enable-background:new 0 0 512 512" xml:space="preserve"><g><path xmlns="http://www.w3.org/2000/svg" d="m208 352v-105.367188l32 32 22.625-22.632812-70.625-70.632812-70.625 70.632812 22.625 22.632812 32-32v105.367188zm0 0" fill="#2f1dac" data-original="#000000" style=""/><path xmlns="http://www.w3.org/2000/svg" d="m316.160156 97.023438c-14.046875-56.121094-65.265625-97.023438-124.160156-97.023438s-110.113281 40.902344-124.160156 97.023438c-38.34375 5.886718-67.839844 39.007812-67.839844 78.976562 0 44.113281 35.886719 80 80 80h16v-32h-16c-26.472656 0-48-21.527344-48-48 0-26.167969 21.046875-47.511719 47.199219-47.992188l.402343.015626 14.375 2.054687c11.503907 3.496094 21.527344 11.410156 27.617188 21.9375l8.015625 13.847656 27.695313-16.015625-8.007813-13.847656c-10.496094-18.144531-28.03125-31.695312-48.167969-37.199219-.167968-.046875-.335937-.058593-.503906-.105469 12.558594-38.933593 49.359375-66.695312 91.375-66.695312s78.816406 27.761719 91.375 66.6875c-.183594.046875-.367188.066406-.558594.113281-20.089844 5.488281-37.625 19.039063-48.113281 37.191407l-8.007813 13.847656 27.710938 16.007812 8-13.855468c6.097656-10.535157 16.128906-18.449219 27.601562-21.929688l14.382813-2.054688.410156-.015624c26.09375.449218 47.199219 21.808593 47.199219 48.007812 0 26.472656-21.527344 48-48 48h-16v32h16c44.113281 0 80-35.886719 80-80 0-39.96875-29.496094-73.089844-67.839844-78.976562zm0 0" fill="#2f1dac" data-original="#000000" style=""/></g></svg>
