<?xml version="1.0" encoding="utf-8"?>
<!-- Generator: Adobe Illustrator 24.3.0, SVG Export Plug-In . SVG Version: 6.00 Build 0)  -->
<svg version="1.1" id="Layer_1" xmlns="http://www.w3.org/2000/svg" xmlns:xlink="http://www.w3.org/1999/xlink" x="0px" y="0px"
	 viewBox="0 0 200 200" style="enable-background:new 0 0 200 200;" xml:space="preserve">
<style type="text/css">
	.st0{fill:#A0A0A0;}
	.st1{fill:#FFFFFF;}
	.st2{fill:#2F1DAC;}
	.st3{fill:#6734FF;}
	.st4{fill:#262261;}
	.st5{fill:#272560;}
	.st6{fill:#C7F2FF;}
	.st7{fill:#4B24C3;}
	.st8{fill:#6D66D3;}
	.st9{fill:#8787F9;}
	.st10{fill:#58BFC4;}
	.st11{fill:#2286AD;}
	.st12{fill:#009D8D;}
	.st13{fill:#8F60CC;}
	.st14{fill:#BBFFF7;}
</style>
<path class="st10" d="M97.2,197.1c-4.7,0-8.5-3.8-8.5-8.5c0-0.2,0-0.3,0-0.4l-47.6-19.7c-1.6,1.7-3.8,2.8-6.3,2.8
	c-4.7,0-8.5-3.8-8.5-8.5s3.8-8.5,8.5-8.5s8.5,3.8,8.5,8.5c0,0.2,0,0.3,0,0.4l47.6,19.7c1.6-1.7,3.8-2.8,6.3-2.8
	c2.5,0,4.8,1.1,6.3,2.8l47.6-19.7c0-0.1,0-0.3,0-0.4c0-4.7,3.8-8.5,8.5-8.5c4.7,0,8.5,3.8,8.5,8.5s-3.8,8.5-8.5,8.5
	c-2.5,0-4.8-1.1-6.3-2.8l-47.6,19.7c0,0.1,0,0.3,0,0.4C105.7,193.3,101.9,197.1,97.2,197.1z M97.2,185.8c-1.6,0-2.8,1.3-2.8,2.8
	c0,1.6,1.3,2.8,2.8,2.8c1.6,0,2.8-1.3,2.8-2.8C100,187,98.8,185.8,97.2,185.8z M159.6,159.9c-1.6,0-2.8,1.3-2.8,2.8
	c0,1.6,1.3,2.8,2.8,2.8c1.6,0,2.8-1.3,2.8-2.8C162.5,161.2,161.2,159.9,159.6,159.9z M34.8,159.9c-1.6,0-2.8,1.3-2.8,2.8
	c0,1.6,1.3,2.8,2.8,2.8c1.6,0,2.8-1.3,2.8-2.8C37.6,161.2,36.3,159.9,34.8,159.9z M165.8,150.8c-0.4,0-0.7-0.1-1.1-0.2
	c-1.4-0.6-2.1-2.3-1.5-3.7l16.7-40.3c-1.7-1.6-2.8-3.8-2.8-6.3s1.1-4.8,2.8-6.3l-19.7-47.6c-0.1,0-0.3,0-0.4,0
	c-4.7,0-8.5-3.8-8.5-8.5s3.8-8.5,8.5-8.5s8.5,3.8,8.5,8.5c0,2.5-1.1,4.8-2.8,6.3l19.7,47.6c0.1,0,0.3,0,0.4,0c4.7,0,8.5,3.8,8.5,8.5
	c0,4.7-3.8,8.5-8.5,8.5c-0.2,0-0.3,0-0.4,0l-16.7,40.3C167.9,150.2,166.9,150.8,165.8,150.8L165.8,150.8z M185.5,97.5
	c-1.6,0-2.8,1.3-2.8,2.8s1.3,2.8,2.8,2.8c1.6,0,2.8-1.3,2.8-2.8S187.1,97.5,185.5,97.5L185.5,97.5z M159.6,35
	c-1.6,0-2.8,1.3-2.8,2.8c0,1.6,1.3,2.8,2.8,2.8c1.6,0,2.8-1.3,2.8-2.8C162.5,36.3,161.2,35,159.6,35z M28.6,150.8
	c-1.1,0-2.2-0.7-2.6-1.8L9.4,108.8c-0.1,0-0.3,0-0.4,0c-4.7,0-8.5-3.8-8.5-8.5c0-4.7,3.8-8.5,8.5-8.5c0.2,0,0.3,0,0.4,0l19.7-47.6
	c-1.7-1.6-2.8-3.8-2.8-6.3c0-4.7,3.8-8.5,8.5-8.5c2.5,0,4.8,1.1,6.3,2.8l47.6-19.7c0-0.1,0-0.3,0-0.4c0-4.7,3.8-8.5,8.5-8.5
	c4.7,0,8.5,3.8,8.5,8.5c0,0.2,0,0.3,0,0.4L146,29.2c1.4,0.6,2.1,2.3,1.5,3.7c-0.6,1.4-2.3,2.1-3.7,1.5l-40.3-16.7
	c-1.6,1.7-3.8,2.8-6.3,2.8c-2.5,0-4.8-1.1-6.3-2.8L43.3,37.4c0,0.1,0,0.3,0,0.4c0,4.7-3.8,8.5-8.5,8.5c-0.2,0-0.3,0-0.4,0L14.6,94
	c1.7,1.6,2.8,3.8,2.8,6.3c0,2.5-1.1,4.8-2.8,6.3l16.7,40.3c0.6,1.4-0.1,3.1-1.5,3.7C29.4,150.7,29,150.8,28.6,150.8z M8.9,97.5
	c-1.6,0-2.8,1.3-2.8,2.8s1.3,2.8,2.8,2.8s2.8-1.3,2.8-2.8S10.5,97.5,8.9,97.5L8.9,97.5z M34.8,35c-1.6,0-2.8,1.3-2.8,2.8
	c0,1.6,1.3,2.8,2.8,2.8c1.6,0,2.8-1.3,2.8-2.8C37.6,36.3,36.3,35,34.8,35z M97.2,9.2c-1.6,0-2.8,1.3-2.8,2.8s1.3,2.8,2.8,2.8
	s2.8-1.3,2.8-2.8S98.8,9.2,97.2,9.2L97.2,9.2z"/>
<path class="st10" d="M140,54c-1.1-1.1-2.9-1-4,0.1s-1,2.9,0.1,4c1.6,1.5,3.1,3.1,4.5,4.8h-11.7c-1.1-2.5-2.3-4.8-3.7-7
	c-2.2-3.5-4.5-6.6-7.1-9.2c3.5,1.4,6.9,3.2,10.1,5.3c1.3,0.9,3.1,0.5,3.9-0.8c0.9-1.3,0.5-3.1-0.8-3.9C121.2,40.6,109.3,37,97,37
	c-34.6,0-62.8,28.2-62.8,62.8c0,34.6,28.2,62.8,62.8,62.8c34.6,0,62.8-28.2,62.8-62.8C159.8,82.5,152.6,65.9,140,54z M144.9,68.6
	c5.5,8.4,8.7,18.1,9.2,28.4h-17.7c-0.3-10.1-2-19.8-5.1-28.4H144.9z M99.9,42.9c7.7,1.1,14.9,6.7,20.6,16c0.8,1.3,1.5,2.6,2.2,4
	H99.9V42.9z M94.2,42.9v20H71.4c0.7-1.4,1.4-2.7,2.2-4C79.3,49.6,86.5,44,94.2,42.9z M75.9,46.8c-2.5,2.6-4.9,5.7-7,9.2
	c-1.3,2.2-2.6,4.5-3.7,7H53.5C59.5,55.9,67.1,50.3,75.9,46.8z M49.2,68.6h13.6C59.8,77.2,58,86.9,57.8,97H40
	C40.5,86.5,43.8,76.8,49.2,68.6z M49.2,131c-5.4-8.2-8.7-17.9-9.2-28.4h17.8c0.3,10.1,2,19.8,5.1,28.4H49.2z M53.5,136.7h11.7
	c1.1,2.5,2.3,4.8,3.7,7c2.2,3.5,4.5,6.6,7,9.2C67.1,149.3,59.5,143.8,53.5,136.7z M94.2,156.7c-7.7-1.1-14.9-6.7-20.5-16
	c-0.8-1.3-1.5-2.6-2.2-4h22.8V156.7z M94.2,131H68.9c-3.3-8.4-5.2-18.1-5.5-28.4h30.8V131z M97,83.7c-1.6,0-2.8,1.3-2.8,2.8V97H63.4
	c0.3-10.2,2.2-19.9,5.5-28.4h25.3v6.6c0,1.6,1.3,2.8,2.8,2.8c1.6,0,2.8-1.3,2.8-2.8v-6.6h25.3c3.3,8.4,5.2,18.1,5.5,28.4H99.9V86.6
	C99.9,85,98.6,83.7,97,83.7z M130.7,102.6c-0.3,10.2-2.2,19.9-5.5,28.4H99.9v-28.4H130.7z M99.9,156.7v-20h22.8
	c-0.7,1.4-1.5,2.8-2.2,4C114.8,150,107.5,155.6,99.9,156.7z M118.2,152.8c2.5-2.6,4.9-5.6,7-9.2c1.3-2.2,2.6-4.5,3.7-7h11.7
	C134.6,143.8,127,149.3,118.2,152.8z M144.8,131h-13.6c3.1-8.6,4.8-18.3,5.1-28.4h17.7C153.6,113.1,150.2,122.8,144.8,131z"/>
</svg>
