<?xml version="1.0" encoding="utf-8"?>
<!-- Generator: Adobe Illustrator 24.3.0, SVG Export Plug-In . SVG Version: 6.00 Build 0)  -->
<svg version="1.1" id="Layer_1" xmlns="http://www.w3.org/2000/svg" xmlns:xlink="http://www.w3.org/1999/xlink" x="0px" y="0px"
	 viewBox="0 0 200 200" style="enable-background:new 0 0 200 200;" xml:space="preserve">
<style type="text/css">
	.st0{fill:#A0A0A0;}
	.st1{fill:#FFFFFF;}
	.st2{fill:#2F1DAC;}
	.st3{fill:#6734FF;}
	.st4{fill:#262261;}
	.st5{fill:#272560;}
	.st6{fill:#C7F2FF;}
	.st7{fill:#4B24C3;}
	.st8{fill:#6D66D3;}
	.st9{fill:#8787F9;}
	.st10{fill:#58BFC4;}
	.st11{fill:#2286AD;}
	.st12{fill:#009D8D;}
	.st13{fill:#8F60CC;}
	.st14{fill:#BBFFF7;}
</style>
<g>
	<g>
		<g>
			<path class="st10" d="M120.2,92.6h-4.1c-1.5,0-2.8,1.3-2.8,2.8v14.9c0,1.5,1.3,2.8,2.8,2.8h4.1c11.4,0,12.6-7.2,12.6-10.3
				C132.8,99.7,131.6,92.6,120.2,92.6z M118.9,107.5v-9.3c4.4,0,8.2,0.2,8.2,4.6C127.2,107.2,123.4,107.5,118.9,107.5z"/>
		</g>
	</g>
	<g>
		<g>
			<path class="st10" d="M84.8,110.8l-5.7-18.6c-0.8-2.6-4.6-2.6-5.5,0l-5.9,18.5c-0.4,1.4,0.3,2.9,1.7,3.5
				c4.2,1.6,9.4,1.6,13.7,0.1C84.5,113.7,85.3,112.2,84.8,110.8z M74,109.6l2.3-7.4l2.3,7.4C77.1,109.9,75.5,109.8,74,109.6z"/>
		</g>
	</g>
	<g>
		<g>
			<path class="st10" d="M191.5,53.5H87.7c-1.5,0-2.8,1.3-2.8,2.8c0,1.5,1.3,2.8,2.8,2.8h101.1L146.9,101c2-6.6,1.7-18.2-6.5-24.5
				c-4.8-3.7-11.8-5.5-21.3-5.5l-18.5,0h0c-1.5,0-2.8,1.3-2.8,2.8V102L87.1,72.8c-0.4-1.1-1.5-1.8-2.6-1.8h-16
				c-1.2,0-2.2,0.7-2.6,1.8L54.4,103c-6.8-9.2-21.8-9.6-25.7-13.9c0.5-0.4,2-1.2,5.3-1c3.1,0.2,6.1,0.3,12.4,3.4
				c1.3,0.6,2.9,0.1,3.7-1.1c7-12.1,7.2-11.9,6.7-13.4c-0.2-0.7-0.7-1.4-1.4-1.7C41,68,19,67,10.3,80.5V59.1h64.3
				c1.5,0,2.8-1.3,2.8-2.8c0-1.5-1.3-2.8-2.8-2.8H9.1c-2.5,0-4.5,2-4.5,4.5v91.3c0,1.5,1.3,2.8,2.8,2.8h67.1c1.5,0,2.8-1.3,2.8-2.8
				c0-1.5-1.3-2.8-2.8-2.8H10.3V130c10.1,5.2,23.9,7.2,34,2.5c0.5,1,1.5,1.6,2.5,1.6h16.8c1.2,0,2.3-0.8,2.7-1.9l2-6
				c5,1.2,10.5,1.3,15.9,0.1l1.9,5.9c0.4,1.2,1.5,1.9,2.7,1.9h25.1l-12.4,12.4H87.7c-1.5,0-2.8,1.3-2.8,2.8c0,1.5,1.3,2.8,2.8,2.8
				h14.2c1.2,0,2.3-0.5,3.2-1.3l89.7-89.6C197.5,58.3,195.5,53.5,191.5,53.5z M13.4,114.1l-3.1,6.1v-19.4c3.9,5.7,11.3,8.8,18,10.8
				c2.1,0.6,6.9,2.2,7.3,3.2c0,1.7-2.7,2-4.4,2c-4.6,0.1-8-0.5-13.9-4C15.9,112.1,14.1,112.7,13.4,114.1z M118.9,129v-12.6
				c3.9,0,8.8,0.2,14.3-1.7L118.9,129z M122.1,110.7h-6c-1.5,0-2.8,1.3-2.8,2.8v15H90.8l-2.1-6.5c-0.5-1.5-2.1-2.3-3.5-1.8
				c-5.9,1.9-12.4,1.7-17.8-0.1c-1.5-0.5-3.1,0.3-3.5,1.8l-2.2,6.6H50.9l0.4-1.2c0.4-1.2,0-2.5-1-3.3c-3.9-2.8-3.9,5.3-19.2,5.4
				c-5.9,0-11.8-1.4-17.2-4l3.2-6.3c5.5,2.8,9.5,3.4,14.2,3.3c7.2-0.2,9.8-4,9.9-7.5c0.2-11.4-28.5-6.3-28.2-24.6
				C13.2,77,31.5,71.5,50.1,79l-3.6,6.3c-11.3-4.9-23.4-3.5-23.6,3.7c-0.1,3.6,3.8,6.6,12.2,9.3c8.5,2.7,15.6,5.5,16.7,12.6
				c0.4,2.8,4.4,3.2,5.4,0.5l13.1-35h12.1L98,118.8c1.1,2.9,5.4,2.2,5.4-1V76.6c21.4,0,38.9-2.1,38.9,17.2
				C142.3,104.6,135,110.7,122.1,110.7z"/>
		</g>
	</g>
</g>
</svg>
