<?xml version="1.0"?>
<svg xmlns="http://www.w3.org/2000/svg" xmlns:xlink="http://www.w3.org/1999/xlink" xmlns:svgjs="http://svgjs.com/svgjs" version="1.1" width="512" height="512" x="0" y="0" viewBox="0 0 512 512" style="enable-background:new 0 0 512 512" xml:space="preserve" class=""><g><g xmlns="http://www.w3.org/2000/svg"><path d="m30 30h25.21v-30h-55.21v55.211h30z" fill="#2f1dac" data-original="#000000" style="" class=""/><path d="m0 91.357h30v55.211h-30z" fill="#2f1dac" data-original="#000000" style="" class=""/><path d="m0 182.716h30v55.211h-30z" fill="#2f1dac" data-original="#000000" style="" class=""/><path d="m365.432 0h55.21v30h-55.21z" fill="#2f1dac" data-original="#000000" style="" class=""/><path d="m274.074 0h55.21v30h-55.21z" fill="#2f1dac" data-original="#000000" style="" class=""/><path d="m182.716 0h55.21v30h-55.21z" fill="#2f1dac" data-original="#000000" style="" class=""/><path d="m91.358 0h55.21v30h-55.21z" fill="#2f1dac" data-original="#000000" style="" class=""/><path d="m456.79 0v30h25.21v25.211h30v-55.211z" fill="#2f1dac" data-original="#000000" style="" class=""/><path d="m482 91.357h30v55.211h-30z" fill="#2f1dac" data-original="#000000" style="" class=""/><path d="m482 182.716h30v55.211h-30z" fill="#2f1dac" data-original="#000000" style="" class=""/><path d="m482 274.073h30v55.211h-30z" fill="#2f1dac" data-original="#000000" style="" class=""/><path d="m482 365.432h30v55.211h-30z" fill="#2f1dac" data-original="#000000" style="" class=""/><path d="m482 482h-25.21v30h55.21v-55.211h-30z" fill="#2f1dac" data-original="#000000" style="" class=""/><path d="m365.432 482h55.21v30h-55.21z" fill="#2f1dac" data-original="#000000" style="" class=""/><path d="m274.074 482h55.21v30h-55.21z" fill="#2f1dac" data-original="#000000" style="" class=""/><path d="m0 512h237.926v-237.926h-237.926zm30-207.926h177.926v177.926h-177.926z" fill="#2f1dac" data-original="#000000" style="" class=""/><path d="m359.963 115.934h14.89l-80.528 80.528v-14.89h-30v66.103h66.103v-30h-14.89l80.528-80.529v14.891h30v-66.103h-66.103z" fill="#2f1dac" data-original="#000000" style="" class=""/></g></g></svg>
