<?xml version="1.0" encoding="utf-8"?>
<!-- Generator: Adobe Illustrator 24.3.0, SVG Export Plug-In . SVG Version: 6.00 Build 0)  -->
<svg version="1.1" id="Layer_1" xmlns="http://www.w3.org/2000/svg" xmlns:xlink="http://www.w3.org/1999/xlink" x="0px" y="0px"
	 viewBox="0 0 200 200" style="enable-background:new 0 0 200 200;" xml:space="preserve">
<style type="text/css">
	.st0{fill:#A0A0A0;}
	.st1{fill:#FFFFFF;}
	.st2{fill:#2F1DAC;}
	.st3{fill:#6734FF;}
	.st4{fill:#262261;}
	.st5{fill:#272560;}
	.st6{fill:#C7F2FF;}
	.st7{fill:#4B24C3;}
	.st8{fill:#6D66D3;}
	.st9{fill:#8787F9;}
	.st10{fill:#58BFC4;}
	.st11{fill:#2286AD;}
	.st12{fill:#009D8D;}
	.st13{fill:#8F60CC;}
	.st14{fill:#BBFFF7;}
</style>
<g>
	<path class="st10" d="M16.8,20.1c-6.8,0-12.3,5.5-12.3,12.3c0,5.8,4,10.6,9.3,11.9c0.9,0.2,1.9,0.4,2.9,0.4c1.1,0,2.2-0.1,3.2-0.4
		c5.2-1.4,9.1-6.2,9.1-11.9C29.2,25.6,23.6,20.1,16.8,20.1z M16.8,38.5c-3.4,0-6.1-2.8-6.1-6.2s2.8-6.2,6.1-6.2
		c3.4,0,6.2,2.8,6.2,6.2S20.2,38.5,16.8,38.5z"/>
	<path class="st10" d="M74.9,17c-1.4-5.3-6.2-9.2-11.9-9.2c-6.8,0-12.3,5.5-12.3,12.3c0,6.8,5.5,12.3,12.3,12.3
		c5.7,0,10.5-3.9,11.9-9.2c0.2-1,0.4-2,0.4-3.1S75.1,18,74.9,17z M63,26.2c-3.4,0-6.2-2.8-6.2-6.1s2.8-6.1,6.2-6.1
		c3.4,0,6.1,2.8,6.1,6.1S66.3,26.2,63,26.2z"/>
	<path class="st10" d="M176.7,47.7c-6.8,0-12.3,5.5-12.3,12.3c0,5.7,3.9,10.5,9.2,11.9c1,0.3,2,0.4,3.1,0.4s2.1-0.1,3.1-0.4
		c5.3-1.4,9.2-6.2,9.2-11.9C189,53.3,183.5,47.7,176.7,47.7z M176.7,66.2c-3.4,0-6.1-2.8-6.1-6.2c0-3.4,2.8-6.1,6.1-6.1
		s6.1,2.8,6.1,6.1C182.8,63.4,180.1,66.2,176.7,66.2z"/>
	<path class="st10" d="M139.8,168c-1-0.3-2-0.4-3.1-0.4s-2.1,0.1-3.1,0.4c-5.3,1.4-9.2,6.2-9.2,11.9c0,6.8,5.5,12.3,12.3,12.3
		c6.8,0,12.3-5.5,12.3-12.3C149,174.2,145.1,169.4,139.8,168z M136.7,186.1c-3.4,0-6.1-2.8-6.1-6.1s2.8-6.1,6.1-6.1s6.2,2.8,6.2,6.1
		S140.1,186.1,136.7,186.1z"/>
	<path class="st10" d="M179.8,134.2c-1-0.3-2-0.4-3.1-0.4s-2.1,0.1-3.1,0.4c-5.3,1.4-9.2,6.2-9.2,11.9c0,6.8,5.5,12.3,12.3,12.3
		c6.8,0,12.3-5.5,12.3-12.3C189,140.4,185.1,135.6,179.8,134.2z M176.7,152.3c-3.4,0-6.1-2.8-6.1-6.2s2.8-6.1,6.1-6.1
		s6.1,2.8,6.1,6.1S180.1,152.3,176.7,152.3z"/>
	<path class="st10" d="M56.4,167.6c-1.4-5.3-6.2-9.2-11.9-9.2c-6.8,0-12.3,5.5-12.3,12.3c0,6.8,5.5,12.3,12.3,12.3
		c5.7,0,10.5-3.9,11.9-9.2c0.3-1,0.4-2,0.4-3.1S56.7,168.6,56.4,167.6z M44.5,176.8c-3.4,0-6.2-2.8-6.2-6.1s2.8-6.1,6.2-6.1
		c3.4,0,6.1,2.8,6.1,6.1S47.9,176.8,44.5,176.8z"/>
	<path class="st10" d="M28.8,130.7c-1.4-5.3-6.2-9.2-11.9-9.2c-6.8,0-12.3,5.5-12.3,12.3c0,6.8,5.5,12.3,12.3,12.3
		c5.7,0,10.5-3.9,11.9-9.2c0.2-1,0.4-2,0.4-3.1S29,131.7,28.8,130.7z M16.8,140c-3.4,0-6.1-2.8-6.1-6.2c0-3.4,2.8-6.1,6.1-6.1
		c3.4,0,6.2,2.8,6.2,6.1C23,137.2,20.2,140,16.8,140z"/>
	<path class="st10" d="M146,7.8c-6.8,0-12.3,5.5-12.3,12.3c0,5.7,3.9,10.5,9.2,11.9c1,0.3,2,0.4,3.1,0.4s2.1-0.1,3.1-0.4
		c5.3-1.4,9.2-6.2,9.2-11.9C158.3,13.3,152.7,7.8,146,7.8z M146,26.2c-3.4,0-6.2-2.8-6.2-6.1s2.8-6.1,6.2-6.1c3.4,0,6.1,2.8,6.1,6.1
		S149.3,26.2,146,26.2z"/>
	<path class="st10" d="M151.2,90c-0.9-5-2.5-9.7-4.7-14.2l-5.7,2.4c3.3,6.6,5.1,14,5.1,21.8c0,4-0.5,7.9-1.4,11.7
		c-3.4,13.7-12.5,25.2-24.7,31.7c-7.7,4.1-16.6,6.2-26,5.7c-25.1-1.4-45.3-22-46.3-47.1C46.5,74,69,50.8,96.8,50.8
		c8.3,0,16.2,2.1,23.1,5.8c5.4,2.9,10.2,6.8,14.2,11.4l5.9-2.5c-4.2-5.3-9.4-9.8-15.3-13.3c-1.8-1-3.6-2-5.5-2.8
		c-6-2.7-12.5-4.3-19.3-4.7c-1,0-2-0.1-3.1-0.1c-1,0-2.1,0-3.1,0.1c-15.1,0.8-28.6,7.8-38.1,18.3c-1.7,1.9-3.3,4-4.8,6.2
		c-5.9,8.8-9.3,19.4-9.3,30.7s3.5,21.9,9.3,30.7c1.5,2.2,3.1,4.2,4.8,6.2c9.4,10.5,22.8,17.4,37.8,18.3c1.1,0.1,2.2,0.1,3.4,0.1
		c1,0,1.9,0,2.9-0.1c6.9-0.4,13.5-2,19.5-4.7c1.9-0.8,3.8-1.8,5.5-2.8c10.2-6,18.4-15.2,23.1-26.2c1.2-2.9,2.2-5.8,2.9-8.9v0
		c1-4,1.5-8.3,1.5-12.6C152.1,96.6,151.8,93.2,151.2,90z"/>
	<path class="st10" d="M56.8,69.3H41.4c-15.3,0-27.7-12.4-27.7-27.7c0-1.7,1.4-3.1,3.1-3.1s3.1,1.4,3.1,3.1
		c0,11.9,9.7,21.5,21.5,21.5h15.4c1.7,0,3.1,1.4,3.1,3.1C59.9,67.9,58.5,69.3,56.8,69.3z"/>
	<path class="st10" d="M71.3,168.2l2.3,5.6H53.7c-1.7,0-3.1-1.4-3.1-3.1c0-1.7,1.4-3.1,3.1-3.1h17.4C71.2,167.8,71.3,168,71.3,168.2
		z"/>
	<path class="st10" d="M99.8,152.3c0,1-0.1,2-0.2,3c-1.1,7.8-6.4,14.3-13.6,17.1l-2.4-5.7c4.9-1.8,8.7-6.2,9.7-11.4
		c0.2-1,0.3-1.9,0.3-3c0-1.7,1.4-3.1,3.1-3.1C98.5,149.2,99.8,150.6,99.8,152.3z"/>
	<path class="st10" d="M56.8,136.9H26.1c-1.7,0-3.1-1.4-3.1-3.1s1.4-3.1,3.1-3.1h30.7c1.7,0,3.1,1.4,3.1,3.1S58.5,136.9,56.8,136.9z
		"/>
	<path class="st10" d="M96.8,32.4c-1.7,0-3.1-1.4-3.1-3.1c0-3.4-2.8-6.1-6.1-6.1H72.2c-1.7,0-3.1-1.4-3.1-3.1c0-1.7,1.4-3.1,3.1-3.1
		h15.4c6.8,0,12.3,5.5,12.3,12.3C99.9,31,98.5,32.4,96.8,32.4z"/>
	<path class="st10" d="M96.8,50.8c-1.7,0-3.1-1.4-3.1-3.1V29.3c0-1.7,1.4-3.1,3.1-3.1c1.7,0,3.1,1.4,3.1,3.1v18.4
		C99.9,49.4,98.5,50.8,96.8,50.8z"/>
	<path class="st10" d="M121.4,57c-1.7,0-3.1-1.4-3.1-3.1c0-6.8,5.5-12.3,12.3-12.3h9.2c1.7,0,3.1-1.4,3.1-3.1v-9.2
		c0-1.7,1.4-3.1,3.1-3.1s3.1,1.4,3.1,3.1v9.2c0,5.1-4.1,9.2-9.2,9.2h-9.2c-3.4,0-6.1,2.8-6.1,6.1C124.4,55.6,123.1,57,121.4,57z"/>
	<path class="st10" d="M149,103.1c-1.7,0-3.1-1.4-3.1-3.1c0-6.8,5.5-12.3,12.3-12.3h12.3c1.7,0,3.1-1.4,3.1-3.1V69.3
		c0-1.7,1.4-3.1,3.1-3.1s3.1,1.4,3.1,3.1v15.4c0,5.1-4.1,9.2-9.2,9.2h-12.3c-3.4,0-6.1,2.8-6.1,6.1
		C152.1,101.7,150.7,103.1,149,103.1z"/>
	<path class="st10" d="M176.7,140c-1.7,0-3.1-1.4-3.1-3.1v-9.2c0-1.7-1.4-3.1-3.1-3.1h-15.4c-6.4,0-10.7-4.9-10.7-12.3
		c0-1.7,1.4-3.1,3.1-3.1s3.1,1.4,3.1,3.1c0,1.9,0.4,6.1,4.5,6.1h15.4c5.1,0,9.2,4.1,9.2,9.2v9.2C179.8,138.6,178.4,140,176.7,140z"
		/>
	<path class="st10" d="M136.7,164.6c-1.7,0-3.1-1.4-3.1-3.1c0-1.7-1.4-3.1-3.1-3.1c-6.8,0-12.3-5.5-12.3-12.3c0-1.7,1.4-3.1,3.1-3.1
		c1.7,0,3.1,1.4,3.1,3.1c0,3.4,2.8,6.1,6.1,6.1c5.1,0,9.2,4.1,9.2,9.2C139.8,163.2,138.4,164.6,136.7,164.6z"/>
	<path class="st10" d="M136.7,173.8c-1.7,0-3.1-1.4-3.1-3.1v-9.2c0-1.7,1.4-3.1,3.1-3.1s3.1,1.4,3.1,3.1v9.2
		C139.8,172.4,138.4,173.8,136.7,173.8z"/>
	<path class="st10" d="M121.4,90.8H72.2c-1.7,0-3.1,1.4-3.1,3.1v36.9c0,1.7,1.4,3.1,3.1,3.1h49.2c1.7,0,3.1-1.4,3.1-3.1V93.8
		C124.4,92.2,123.1,90.8,121.4,90.8z M118.3,127.7h-43V96.9h43V127.7z"/>
	<path class="st10" d="M106,103.1H87.6c-1.7,0-3.1,1.4-3.1,3.1v12.3c0,1.7,1.4,3.1,3.1,3.1H106c1.7,0,3.1-1.4,3.1-3.1v-12.3
		C109.1,104.5,107.7,103.1,106,103.1z M102.9,115.4H90.6v-6.2h12.3V115.4z"/>
	<path class="st10" d="M96.8,60c-11.9,0-21.5,9.7-21.5,21.5v12.3c0,1.7,1.4,3.1,3.1,3.1h36.9c1.7,0,3.1-1.4,3.1-3.1V81.6
		C118.3,69.7,108.6,60,96.8,60z M81.4,90.8v-9.2c0-8.5,6.9-15.4,15.4-15.4c8.5,0,15.4,6.9,15.4,15.4v9.2H81.4z"/>
	<path class="st10" d="M96.8,72.3c-5.1,0-9.2,4.1-9.2,9.2v12.3c0,1.7,1.4,3.1,3.1,3.1h12.3c1.7,0,3.1-1.4,3.1-3.1V81.6
		C106,76.5,101.9,72.3,96.8,72.3z M93.7,90.8v-9.2c0-1.7,1.4-3.1,3.1-3.1c1.7,0,3.1,1.4,3.1,3.1v9.2H93.7z"/>
</g>
</svg>
