<?xml version="1.0" encoding="utf-8"?>
<!-- Generator: Adobe Illustrator 24.3.0, SVG Export Plug-In . SVG Version: 6.00 Build 0)  -->
<svg version="1.1" id="Layer_1" xmlns="http://www.w3.org/2000/svg" xmlns:xlink="http://www.w3.org/1999/xlink" x="0px" y="0px"
	 viewBox="0 0 200 200" style="enable-background:new 0 0 200 200;" xml:space="preserve">
<style type="text/css">
	.st0{fill:#A0A0A0;}
	.st1{fill:#FFFFFF;}
	.st2{fill:#2F1DAC;}
	.st3{fill:#6734FF;}
	.st4{fill:#262261;}
	.st5{fill:#272560;}
	.st6{fill:#C7F2FF;}
	.st7{fill:#4B24C3;}
	.st8{fill:#6D66D3;}
	.st9{fill:#8787F9;}
	.st10{fill:#58BFC4;}
	.st11{fill:#2286AD;}
	.st12{fill:#009D8D;}
	.st13{fill:#8F60CC;}
	.st14{fill:#BBFFF7;}
</style>
<g>
	<path class="st10" d="M126.4,149.4H78.1c-1.5,0-2.8-1.2-2.8-2.8c0-1.5,1.2-2.8,2.8-2.8h48.3c3.8,0.2,7.1-2.7,7.3-6.5
		c0.2-3.8-2.7-7.1-6.5-7.3c-0.3,0-0.5,0-0.8,0h-25.9c-0.7,0-1.4-0.3-1.9-0.7c-9-8.3-20.8-12.9-33.1-12.9H34.8
		c-1.5,0-2.8-1.2-2.8-2.8s1.2-2.8,2.8-2.8h30.8c13.3,0,26.1,4.8,36,13.6h24.8c6.9,0.3,12.2,6.1,11.9,13
		C138.1,143.9,132.9,149.1,126.4,149.4L126.4,149.4z"/>
	<path class="st10" d="M100.4,183.8c-5.3,0-10.5-0.9-15.5-2.6c-0.1,0-0.2-0.1-0.3-0.1l-50.8-18.4c-1.5-0.5-2.2-2-1.8-3.5
		c0.5-1.5,2-2.2,3.5-1.8c0,0,0.1,0,0.1,0.1l50.8,18.4c0.1,0,0.2,0.1,0.3,0.1c6.5,2.2,13.4,2.8,20.2,1.8c1.5-0.2,2.9,0.8,3.2,2.3
		c0.2,1.5-0.8,2.9-2.3,3.2C105.5,183.6,103,183.8,100.4,183.8z"/>
	<path class="st10" d="M151.1,165.2c-1.5,0-2.8-1.2-2.8-2.8c0-1.1,0.6-2.1,1.6-2.5l7.4-3.4c1.4-0.7,3-0.1,3.7,1.3
		c0.7,1.4,0.1,3-1.3,3.7c0,0-0.1,0-0.1,0l-7.4,3.4C151.9,165.1,151.5,165.2,151.1,165.2z"/>
	<path class="st10" d="M176.2,153.6c-1.5,0-2.8-1.2-2.8-2.8c0-1.1,0.6-2.1,1.6-2.5l2.1-1l14.2-7.3l-1.6-1.4
		c-6.2-5.5-15-7.2-22.8-4.6l-31.5,10.8c-1.4,0.5-3-0.2-3.5-1.7c-0.5-1.4,0.2-3,1.7-3.5c0,0,0,0,0.1,0l31.5-10.8
		c9.8-3.3,20.6-1.2,28.3,5.6l4.6,4.1c1.2,1,1.3,2.8,0.3,3.9c-0.2,0.3-0.5,0.5-0.8,0.6l-20.2,10.3C177,153.5,176.6,153.6,176.2,153.6
		z"/>
	<path class="st10" d="M126.1,176.8c-1.5,0-2.8-1.2-2.8-2.8c0-1.1,0.6-2.1,1.6-2.5l7.4-3.4c1.4-0.6,3,0,3.7,1.4s0,3-1.4,3.7l0,0
		l-7.4,3.4C126.9,176.7,126.5,176.8,126.1,176.8z"/>
	<path class="st10" d="M26.2,174.5H7.7c-1.5,0-2.8-1.2-2.8-2.8v-70c0-1.5,1.2-2.8,2.8-2.8h18.5c6.3,0,11.3,5.1,11.3,11.3v52.9
		C37.6,169.4,32.5,174.5,26.2,174.5z M10.5,169h15.7c3.2,0,5.8-2.6,5.8-5.8v-52.9c0-3.2-2.6-5.8-5.8-5.8H10.5V169z"/>
	<path class="st10" d="M141.9,64.1c-0.4,0-0.9-0.1-1.3-0.3L129.7,58l-10.9,5.7c-1.4,0.7-3,0.2-3.7-1.2c-0.3-0.5-0.4-1.2-0.3-1.8
		l2.1-12.1l-8.8-8.6c-1.1-1.1-1.1-2.8-0.1-3.9c0.4-0.4,1-0.7,1.6-0.8l12.2-1.8l5.4-11c0.8-1.4,2.6-1.8,4-1c0.4,0.2,0.8,0.6,1,1
		l5.4,11l12.2,1.8c1.5,0.2,2.6,1.6,2.3,3.1c-0.1,0.6-0.4,1.2-0.8,1.6l-8.8,8.6l2.1,12.1c0.3,1.5-0.8,2.9-2.3,3.2
		C142.2,64,142,64.1,141.9,64.1L141.9,64.1z M129.7,52.1c0.4,0,0.9,0.1,1.3,0.3l7.2,3.8l-1.4-8c-0.2-0.9,0.1-1.8,0.8-2.5l5.8-5.7
		l-8-1.2c-0.9-0.1-1.7-0.7-2.1-1.5l-3.6-7.3l-3.6,7.3c-0.4,0.8-1.2,1.4-2.1,1.5l-8,1.2l5.8,5.7c0.7,0.6,1,1.6,0.8,2.5l-1.4,8
		l7.2-3.8C128.8,52.2,129.2,52.1,129.7,52.1z"/>
	<path class="st10" d="M178.4,90.2c-0.4,0-0.9-0.1-1.3-0.3l-8.6-4.5l-8.6,4.5c-1.4,0.7-3,0.2-3.7-1.2c-0.3-0.5-0.4-1.2-0.3-1.8
		l1.6-9.6l-7-6.8c-1.1-1.1-1.1-2.8-0.1-3.9c0.4-0.4,1-0.7,1.6-0.8l9.6-1.4l4.3-8.7c0.8-1.4,2.6-1.8,4-1c0.4,0.2,0.8,0.6,1,1l4.3,8.7
		l9.6,1.4c1.5,0.2,2.6,1.6,2.3,3.1c-0.1,0.6-0.4,1.2-0.8,1.6l-7,6.8l1.6,9.6c0.3,1.5-0.8,2.9-2.3,3.2
		C178.7,90.2,178.6,90.2,178.4,90.2L178.4,90.2z M168.5,79.4c0.4,0,0.9,0.1,1.3,0.3l4.9,2.6l-0.9-5.5c-0.2-0.9,0.1-1.8,0.8-2.5
		l4-3.9l-5.5-0.8c-0.9-0.1-1.7-0.7-2.1-1.5l-2.5-5l-2.5,5c-0.4,0.8-1.2,1.4-2.1,1.5l-5.5,0.8l4,3.9c0.7,0.6,1,1.6,0.8,2.5l-0.9,5.5
		l4.9-2.6C167.6,79.5,168.1,79.4,168.5,79.4z"/>
	<path class="st10" d="M100.8,90.2c-0.4,0-0.9-0.1-1.3-0.3l-8.6-4.5l-8.6,4.5c-1.4,0.7-3,0.2-3.7-1.2c-0.3-0.5-0.4-1.2-0.3-1.8
		l1.6-9.6l-7-6.8c-1.1-1.1-1.1-2.8-0.1-3.9c0.4-0.4,1-0.7,1.6-0.8l9.6-1.4l4.3-8.7c0.8-1.4,2.6-1.8,4-1c0.4,0.2,0.8,0.6,1,1l4.3,8.7
		l9.6,1.4c1.5,0.2,2.6,1.6,2.3,3.1c-0.1,0.6-0.4,1.2-0.8,1.6l-7,6.8l1.6,9.6c0.3,1.5-0.8,2.9-2.3,3.2
		C101.1,90.2,101,90.2,100.8,90.2L100.8,90.2z M90.9,79.4c0.4,0,0.9,0.1,1.3,0.3l4.9,2.6l-0.9-5.5C96,75.9,96.3,75,97,74.4l4-3.9
		l-5.5-0.8c-0.9-0.1-1.7-0.7-2.1-1.5l-2.5-5l-2.5,5c-0.4,0.8-1.2,1.4-2.1,1.5l-5.5,0.8l4,3.9c0.7,0.6,1,1.6,0.8,2.5l-0.9,5.5
		l4.9-2.6C90,79.5,90.4,79.4,90.9,79.4z"/>
</g>
</svg>
